<?xml version="1.0" encoding="iso-8859-1"?>
<!-- Uploaded to: SVG Repo, www.svgrepo.com, Generator: SVG Repo Mixer Tools -->
<svg fill="#000000" height="800px" width="800px" version="1.1" id="Capa_1" xmlns="http://www.w3.org/2000/svg" xmlns:xlink="http://www.w3.org/1999/xlink" 
	 viewBox="0 0 612 612" xml:space="preserve">
<g>
	<g>
		<path d="M270.853,310.198c86.177-0.005,117.184-86.291,125.301-157.169C406.151,65.715,364.863,0,270.853,0
			c-93.997,0-135.309,65.71-125.301,153.029C153.677,223.907,184.674,310.204,270.853,310.198z"/>
		<path d="M459.288,346.115c2.773,0,5.528,0.083,8.264,0.235c-4.099-5.85-8.848-11.01-14.403-15.158
			c-16.559-12.359-38.005-16.414-56.964-23.864c-9.227-3.625-17.493-7.226-25.253-11.326c-26.184,28.715-60.328,43.736-100.09,43.74
			c-39.751,0-73.89-15.021-100.072-43.74c-7.76,4.101-16.026,7.701-25.253,11.326c-18.959,7.451-40.404,11.505-56.964,23.864
			c-28.638,21.375-36.039,69.46-41.854,102.26c-4.799,27.076-8.023,54.707-8.964,82.209c-0.729,21.303,9.79,24.29,27.611,30.721
			c22.315,8.048,45.356,14.023,68.552,18.921c44.797,9.46,90.973,16.729,136.951,17.056c22.277-0.159,44.601-1.956,66.792-4.835
			c-16.431-23.807-26.068-52.645-26.068-83.695C311.574,412.378,377.839,346.115,459.288,346.115z"/>
		<path d="M456.127,612c65.262,0,118.172-52.909,118.172-118.171s-52.909-118.171-118.172-118.171s-118.172,52.909-118.172,118.171
			S390.864,612,456.127,612z M407.491,503.955c3.234-3.233,7.471-4.849,11.709-4.849c4.239,0,8.476,1.616,11.71,4.851l8.655,8.655
			v-77.546c0-9.146,7.414-16.559,16.559-16.559s16.559,7.414,16.559,16.559v77.55l8.662-8.662
			c6.467-6.465,16.952-6.467,23.419,0.002c6.467,6.467,6.467,16.953,0,23.419l-36.931,36.927
			c-6.467,6.466-16.952,6.467-23.419-0.002l-36.925-36.927C401.022,520.907,401.022,510.422,407.491,503.955z"/>
	</g>
</g>
</svg>