<svg width="40" height="40" viewBox="0 0 40 40" fill="none" xmlns="http://www.w3.org/2000/svg">
<rect width="40" height="40" rx="20" fill="#FFAA5D"/>
<path d="M20.0054 25.7605C20.0054 26.0776 19.8222 26.3657 19.5355 26.5002C19.4246 26.5526 19.3058 26.5779 19.1878 26.5779C19.0009 26.5779 18.8158 26.5137 18.6662 26.3897L14.1975 22.6867H11.8174C11.366 22.6871 11 22.3208 11 21.8695V18.6128C11 18.1612 11.366 17.7952 11.8174 17.7952H14.1977L18.6664 14.0922C18.9106 13.8898 19.2491 13.8467 19.5357 13.9821C19.8222 14.1166 20.0056 14.4048 20.0056 14.7217L20.0054 25.7605ZM23.1468 24.4832C23.1269 24.4846 23.1077 24.4854 23.088 24.4854C22.8721 24.4854 22.6639 24.4 22.5101 24.246L22.4008 24.1363C22.114 23.8502 22.0804 23.3969 22.3218 23.0715C22.934 22.2462 23.2571 21.2678 23.2571 20.2414C23.2571 19.1375 22.8902 18.102 22.1961 17.2469C21.9318 16.9219 21.9562 16.4498 22.2524 16.1538L22.3615 16.0445C22.5248 15.8812 22.7436 15.7922 22.9804 15.8063C23.211 15.8179 23.4263 15.9265 23.5726 16.1052C24.5355 17.2835 25.0441 18.714 25.0441 20.2416C25.0441 21.6644 24.5943 23.0187 23.7431 24.1574C23.6009 24.3472 23.3834 24.4664 23.1468 24.4832ZM26.5263 27.0094C26.3785 27.1841 26.1647 27.2889 25.9358 27.2986C25.9246 27.299 25.9132 27.2994 25.9016 27.2994C25.6851 27.2994 25.4773 27.2139 25.3235 27.0601L25.2161 26.9527C24.9161 26.6528 24.8957 26.1732 25.1685 25.8486C26.4868 24.2807 27.2131 22.2895 27.2131 20.2414C27.2131 18.1111 26.4356 16.0604 25.0242 14.4669C24.7381 14.1435 24.7526 13.6538 25.0571 13.3481L25.1643 13.2407C25.3233 13.0809 25.5299 12.9929 25.7669 13.0004C25.9919 13.0068 26.2048 13.1063 26.3543 13.2746C28.0603 15.1954 29 17.6698 29 20.2414C29.0004 22.7157 28.1218 25.1194 26.5263 27.0094Z" fill="white"/>
</svg>
