<svg width="16" height="16" viewBox="0 0 16 16" fill="none" xmlns="http://www.w3.org/2000/svg">
<path d="M7.41472 12.4472C7.49157 12.5241 7.58281 12.5851 7.68322 12.6266C7.78363 12.6682 7.89125 12.6897 7.99993 12.6897C8.10861 12.6897 8.21623 12.6682 8.31664 12.6266C8.41705 12.5851 8.50829 12.5241 8.58514 12.4472L11.7061 9.32624C11.8613 9.17104 11.9485 8.96054 11.9485 8.74105C11.9485 8.52156 11.8613 8.31106 11.7061 8.15586C11.5509 8.00066 11.3404 7.91347 11.1209 7.91347C10.9015 7.91347 10.691 8.00066 10.5358 8.15586L8.82752 9.8641V0.827586C8.82752 0.608097 8.74032 0.397597 8.58512 0.242394C8.42992 0.0871919 8.21942 0 7.99993 0C7.78044 0 7.56994 0.0871919 7.41474 0.242394C7.25954 0.397597 7.17234 0.608097 7.17234 0.827586V9.8641L5.4641 8.15586C5.3089 8.00066 5.0984 7.91347 4.87891 7.91347C4.65942 7.91347 4.44893 8.00066 4.29372 8.15586C4.13852 8.31106 4.05133 8.52156 4.05133 8.74105C4.05133 8.96054 4.13852 9.17104 4.29372 9.32624L7.41472 12.4472Z" fill="#17637D"/>
<path d="M15.1724 7.17244C14.9529 7.17244 14.7424 7.25963 14.5872 7.41483C14.432 7.57004 14.3448 7.78054 14.3448 8.00003V14.3449H1.65517V8.00003C1.65517 7.78054 1.56798 7.57004 1.41278 7.41483C1.25758 7.25963 1.04708 7.17244 0.827586 7.17244C0.608097 7.17244 0.397597 7.25963 0.242394 7.41483C0.0871919 7.57004 0 7.78054 0 8.00003V14.6207C0 14.9865 0.14532 15.3374 0.403991 15.596C0.662661 15.8547 1.01349 16 1.37931 16H14.6207C14.9865 16 15.3373 15.8547 15.596 15.596C15.8547 15.3374 16 14.9865 16 14.6207V8.00003C16 7.78054 15.9128 7.57004 15.7576 7.41483C15.6024 7.25963 15.3919 7.17244 15.1724 7.17244Z" fill="#17637D"/>
</svg>
