<svg width="15" height="15" viewBox="0 0 15 15" fill="none" xmlns="http://www.w3.org/2000/svg">
<path d="M7.5 0C3.35476 0 0 3.35438 0 7.5C0 11.6452 3.35438 15 7.5 15C11.6452 15 15 11.6456 15 7.5C15 3.35476 11.6456 0 7.5 0ZM7.5 13.9535C3.94154 13.9535 1.04651 11.0585 1.04651 7.5C1.04651 3.94151 3.94154 1.04651 7.5 1.04651C11.0585 1.04651 13.9535 3.94151 13.9535 7.5C13.9535 11.0585 11.0585 13.9535 7.5 13.9535Z" fill="#899093"/>
<path d="M7.27764 9.49121C6.863 9.49121 6.52734 9.83674 6.52734 10.2513C6.52734 10.6561 6.85313 11.0115 7.27764 11.0115C7.70215 11.0115 8.03777 10.6561 8.03777 10.2513C8.03777 9.83674 7.69225 9.49121 7.27764 9.49121Z" fill="#899093"/>
<path d="M7.40773 3.73438C6.07496 3.73438 5.46289 4.52419 5.46289 5.05728C5.46289 5.44229 5.78867 5.62001 6.05521 5.62001C6.58833 5.62001 6.37115 4.85981 7.37812 4.85981C7.87171 4.85981 8.26663 5.07702 8.26663 5.53115C8.26663 6.06424 7.71377 6.37027 7.38799 6.64669C7.10167 6.89346 6.72655 7.29825 6.72655 8.14728C6.72655 8.66062 6.86478 8.80871 7.26951 8.80871C7.75323 8.80871 7.85196 8.59153 7.85196 8.40392C7.85196 7.89058 7.86184 7.59441 8.40482 7.1699C8.67137 6.9626 9.51049 6.29126 9.51049 5.36328C9.51049 4.4353 8.67137 3.73438 7.40773 3.73438Z" fill="#899093"/>
</svg>
