<svg width="93" height="93" viewBox="0 0 93 93" fill="none" xmlns="http://www.w3.org/2000/svg">
<path d="M75.3173 19.4709C76.2376 19.3723 77.1794 19.5607 78.1603 20.4554V28.2901C77.2704 27.5422 76.321 27.2707 75.2822 27.3783C74.2593 27.4844 73.1935 27.9601 72.1184 28.4615L72.0907 28.4744L72.0639 28.489C70.9876 29.0735 69.7988 29.4239 68.576 29.5168C68.1967 29.5132 67.821 29.4425 67.4667 29.3078L66.1114 28.7926V30.2425V41.4596C66.1114 41.4793 66.1035 41.4993 66.088 41.5148C66.0722 41.5304 66.0498 41.5401 66.0254 41.5401C66.001 41.5401 65.9786 41.5304 65.9629 41.5148C65.9473 41.4993 65.9395 41.4793 65.9395 41.4596V18.7339C65.9395 18.7141 65.9473 18.6942 65.9629 18.6787C65.9786 18.663 66.001 18.6533 66.0254 18.6533C66.0498 18.6533 66.0722 18.663 66.088 18.6787C66.1035 18.6942 66.1114 18.7141 66.1114 18.7339V20.1403V20.6788L66.561 20.9752C67.4829 21.5829 68.4126 21.7218 69.3894 21.5548C70.2925 21.4003 71.2469 20.9794 72.2522 20.5171C73.3075 20.0318 74.3082 19.5791 75.3173 19.4709Z" fill="black" stroke="black" stroke-width="2"/>
<path d="M25.5022 68.0993C24.2054 70.4112 22.8468 72.4635 22.2691 73.3131C21.6925 72.4639 20.3373 70.4119 19.0438 68.1002C18.2822 66.7393 17.5524 65.3067 17.0157 63.9877C16.469 62.6443 16.1673 61.524 16.166 60.7483C16.1848 58.9901 16.8502 57.3229 17.9997 56.1039C19.1479 54.8862 20.6836 54.2148 22.2701 54.2109C23.8587 54.2111 25.3977 54.881 26.5487 56.099C27.701 57.3183 28.3682 58.9877 28.387 60.7483C28.3858 61.5235 28.0834 62.6434 27.5353 63.9869C26.9972 65.3058 26.2656 66.7383 25.5022 68.0993ZM21.3896 56.3684L21.6078 57.3443L21.3896 56.3684C20.5468 56.5568 19.7846 57.0049 19.1942 57.6451C18.6044 58.2846 18.2107 59.0883 18.0533 59.9524C17.8959 60.8164 17.9799 61.7115 18.297 62.5281C18.6143 63.3451 19.154 64.0544 19.8584 64.5598C20.5636 65.0659 21.4005 65.343 22.2639 65.3474C22.8479 65.3504 23.4248 65.2283 23.96 64.9905C24.495 64.7528 24.9755 64.4052 25.3752 63.9718C25.7748 63.5385 26.0861 63.0279 26.2939 62.4714C26.5017 61.9151 26.6028 61.322 26.5926 60.7263C26.5775 59.8475 26.3205 58.9877 25.847 58.2545C25.3731 57.5207 24.7003 56.9423 23.9053 56.6025C23.1092 56.2623 22.233 56.1798 21.3896 56.3684Z" fill="black" stroke="black" stroke-width="2"/>
<path d="M58.7547 43.0474L58.7547 43.0474C58.7064 43.0281 58.6622 42.9998 58.6244 42.9642C58.5916 42.9297 58.5641 42.8904 58.5429 42.8477C58.5144 42.7822 58.4979 42.7122 58.4942 42.6408C58.4949 42.6104 58.5021 42.5805 58.5154 42.5531L58.5324 42.518L58.5466 42.4818C58.5659 42.4324 58.5951 42.3873 58.6323 42.3494C58.6695 42.3115 58.714 42.2816 58.7631 42.2613C58.8122 42.241 58.8648 42.2309 58.9179 42.2315C58.971 42.2321 59.0235 42.2434 59.0721 42.2647L59.0802 42.2683L59.0884 42.2717C59.1426 42.2944 59.1927 42.3258 59.2366 42.3648C59.2694 42.4011 59.2954 42.4429 59.3136 42.4884C59.334 42.5392 59.344 42.5935 59.3432 42.6482L59.3428 42.6755L59.3439 42.7028C59.345 42.7293 59.3399 42.7556 59.3291 42.7798L59.3158 42.8096L59.3045 42.8402C59.2875 42.8861 59.2625 42.9285 59.2308 42.9656C59.189 43.0018 59.1417 43.0311 59.0906 43.0524L59.0906 43.0523L59.079 43.0573C59.0443 43.0722 59.0067 43.0792 58.969 43.0777L58.9417 43.0766L58.9145 43.0769C58.8598 43.0777 58.8055 43.0677 58.7547 43.0474Z" fill="black" stroke="black" stroke-width="2"/>
<path d="M55.8888 42.8571C55.8128 42.9352 55.7115 42.9832 55.6035 42.993C55.5007 42.9835 55.4043 42.9376 55.3319 42.8631C55.2768 42.8065 55.2387 42.7364 55.2207 42.6607C55.2479 42.6018 55.2881 42.5493 55.3388 42.5075C55.4158 42.444 55.5124 42.4089 55.6122 42.4082C55.712 42.4075 55.809 42.4412 55.887 42.5036C55.9365 42.5432 55.9763 42.5929 56.0042 42.6489C55.9851 42.7267 55.9455 42.7987 55.8888 42.8571Z" fill="black" stroke="black" stroke-width="2"/>
<path d="M52.1047 43.1471L52.0987 43.1477C52.0416 43.1527 51.984 43.1464 51.9294 43.1291C51.8747 43.1118 51.824 43.0838 51.7802 43.0468C51.7364 43.0099 51.7004 42.9646 51.6741 42.9136L50.9049 43.3094L51.6741 42.9136C51.6486 42.8641 51.6329 42.8101 51.6278 42.7547C51.6211 42.644 51.6534 42.5346 51.7188 42.4454C51.8012 42.36 51.9106 42.3056 52.0286 42.2915C52.1392 42.2861 52.2479 42.3232 52.3322 42.3953L52.9822 41.6354L52.3322 42.3953C52.4193 42.4698 52.4735 42.5758 52.4829 42.69L52.4828 42.69L52.4835 42.6973C52.4884 42.7517 52.4824 42.8066 52.466 42.8588C52.4495 42.9109 52.4229 42.9593 52.3877 43.0011L52.3877 43.0011C52.3525 43.0429 52.3094 43.0773 52.2608 43.1024C52.2122 43.1275 52.1592 43.1427 52.1047 43.1471L52.1047 43.1471Z" fill="black" stroke="black" stroke-width="2"/>
<path d="M48.6139 43.5624H48.6136C48.511 43.5625 48.4118 43.5262 48.3334 43.4601C48.2577 43.3964 48.2062 43.3088 48.1871 43.2119C48.1728 43.0974 48.2026 42.9815 48.2707 42.888L48.2707 42.888C48.3029 42.8437 48.3435 42.8063 48.3903 42.7779C48.437 42.7494 48.4889 42.7305 48.543 42.7222L48.543 42.7222L48.5449 42.7219C48.6016 42.7131 48.6594 42.7157 48.7151 42.7293C48.7698 42.7427 48.8214 42.7667 48.867 42.7998C48.9573 42.868 49.0188 42.9674 49.0397 43.0784C49.0536 43.1932 49.0251 43.3091 48.9596 43.4044C48.8989 43.4817 48.815 43.5369 48.7209 43.5624H48.6139Z" fill="black" stroke="black" stroke-width="2"/>
<path d="M45.5698 43.7898L46.3329 43.235L45.5698 43.7898C45.6177 43.8557 45.6451 43.9343 45.6486 44.0157C45.6521 44.0971 45.6315 44.1777 45.5894 44.2475C45.5506 44.3118 45.4951 44.3643 45.429 44.3994C45.3723 44.4209 45.3121 44.4323 45.2513 44.4329C45.1663 44.4325 45.0831 44.4082 45.0111 44.3628C44.9427 44.3197 44.8871 44.2591 44.85 44.1874C44.8216 44.1164 44.8133 44.0389 44.8263 43.9633C44.8401 43.883 44.8772 43.8086 44.9331 43.7493C44.989 43.69 45.0611 43.6485 45.1405 43.63C45.2198 43.6115 45.3029 43.6168 45.3792 43.6452C45.4556 43.6736 45.5219 43.7239 45.5698 43.7898Z" fill="black" stroke="black" stroke-width="2"/>
<path d="M42.7112 46.6418L42.7112 46.6417L42.6976 46.6416C42.6231 46.6413 42.5493 46.6294 42.4786 46.6064C42.4402 46.5828 42.4057 46.5534 42.3763 46.5191C42.3384 46.475 42.3098 46.4237 42.2921 46.3684C42.2744 46.313 42.268 46.2547 42.2733 46.1968C42.2785 46.1389 42.2953 46.0827 42.3227 46.0314L42.3462 45.9873L42.3653 45.9411C42.3883 45.8851 42.4228 45.8345 42.4666 45.7926C42.5103 45.7507 42.5623 45.7184 42.6192 45.6978C42.6762 45.6772 42.7368 45.6687 42.7972 45.6729C42.8576 45.6771 42.9165 45.6939 42.97 45.7222C43.0236 45.7504 43.0706 45.7896 43.1081 45.8371C43.1457 45.8846 43.1729 45.9395 43.188 45.9981C43.203 46.0568 43.2057 46.1179 43.1958 46.1776L43.1958 46.1776C43.1859 46.2374 43.1636 46.2944 43.1303 46.345L43.1055 46.3828L43.0841 46.4228C43.0482 46.4901 42.9943 46.5461 42.9285 46.5848C42.8627 46.6234 42.7875 46.6431 42.7112 46.6418Z" fill="black" stroke="black" stroke-width="2"/>
<mask id="path-9-inside-1_3488_1147" fill="white">
<path d="M42.4043 51.0958C42.5718 51.1202 42.742 51.1202 42.9095 51.0958C43.0855 51.0308 43.2469 50.9314 43.3842 50.8033C43.5214 50.6753 43.6318 50.5212 43.7089 50.3501C43.786 50.179 43.8283 49.9942 43.8332 49.8066C43.8382 49.6189 43.8058 49.4322 43.7378 49.2572C43.6703 49.0781 43.5675 48.9143 43.4357 48.7755C43.3038 48.6367 43.1455 48.5257 42.9701 48.449C42.6269 48.3087 42.2424 48.3087 41.8992 48.449C41.5503 48.5891 41.2692 48.8587 41.1147 49.2015C40.9603 49.5443 40.9446 49.9335 41.0708 50.2876C41.1873 50.5399 41.3764 50.7516 41.614 50.8956C41.8516 51.0396 42.1268 51.1093 42.4043 51.0958Z"/>
</mask>
<path d="M42.4043 51.0958C42.5718 51.1202 42.742 51.1202 42.9095 51.0958C43.0855 51.0308 43.2469 50.9314 43.3842 50.8033C43.5214 50.6753 43.6318 50.5212 43.7089 50.3501C43.786 50.179 43.8283 49.9942 43.8332 49.8066C43.8382 49.6189 43.8058 49.4322 43.7378 49.2572C43.6703 49.0781 43.5675 48.9143 43.4357 48.7755C43.3038 48.6367 43.1455 48.5257 42.9701 48.449C42.6269 48.3087 42.2424 48.3087 41.8992 48.449C41.5503 48.5891 41.2692 48.8587 41.1147 49.2015C40.9603 49.5443 40.9446 49.9335 41.0708 50.2876C41.1873 50.5399 41.3764 50.7516 41.614 50.8956C41.8516 51.0396 42.1268 51.1093 42.4043 51.0958Z" fill="black"/>
<path d="M42.4043 51.0958L42.6917 49.1166L42.5003 49.0888L42.3072 49.0982L42.4043 51.0958ZM42.9095 51.0958L43.1968 53.0751L43.405 53.0449L43.6024 52.9719L42.9095 51.0958ZM43.7378 49.2572L41.8666 49.9631L41.87 49.9721L41.8735 49.9811L43.7378 49.2572ZM42.9701 48.449L43.7709 46.6164L43.7492 46.6069L43.7272 46.5979L42.9701 48.449ZM41.8992 48.449L42.6442 50.3051L42.6564 50.3002L41.8992 48.449ZM41.0708 50.2876L39.187 50.9593L39.2172 51.0441L39.255 51.1259L41.0708 50.2876ZM42.117 53.0751C42.475 53.1271 42.8387 53.1271 43.1968 53.0751L42.6221 49.1166C42.6452 49.1132 42.6686 49.1132 42.6917 49.1166L42.117 53.0751ZM43.6024 52.9719C44.0275 52.8149 44.417 52.5749 44.7484 52.2658L42.0199 49.3409C42.0768 49.2878 42.1436 49.2467 42.2165 49.2197L43.6024 52.9719ZM44.7484 52.2658C45.0797 51.9567 45.3462 51.5848 45.5324 51.1717L41.8854 49.5285C41.9174 49.4577 41.9631 49.3939 42.0199 49.3409L44.7484 52.2658ZM45.5324 51.1717C45.7185 50.7585 45.8205 50.3125 45.8325 49.8595L41.8339 49.7536C41.836 49.6759 41.8535 49.5994 41.8854 49.5285L45.5324 51.1717ZM45.8325 49.8595C45.8445 49.4065 45.7663 48.9557 45.6022 48.5333L41.8735 49.9811C41.8453 49.9086 41.8319 49.8313 41.8339 49.7536L45.8325 49.8595ZM45.6091 48.5513C45.4474 48.1224 45.2014 47.7303 44.8857 47.398L41.9857 50.153C41.9337 50.0983 41.8932 50.0337 41.8666 49.9631L45.6091 48.5513ZM44.8857 47.398C44.57 47.0657 44.1909 46.7999 43.7709 46.6164L42.1692 50.2817C42.1001 50.2515 42.0377 50.2077 41.9857 50.153L44.8857 47.398ZM43.7272 46.5979C42.8988 46.259 41.9705 46.259 41.1421 46.5979L42.6564 50.3002C42.5143 50.3583 42.355 50.3583 42.2129 50.3002L43.7272 46.5979ZM41.1543 46.5929C40.3257 46.9255 39.658 47.5659 39.2913 48.3799L42.9382 50.0231C42.8803 50.1515 42.7749 50.2526 42.6442 50.3051L41.1543 46.5929ZM39.2913 48.3799C38.9245 49.194 38.8871 50.1184 39.187 50.9593L42.9547 49.616C43.002 49.7487 42.9961 49.8946 42.9382 50.0231L39.2913 48.3799ZM39.255 51.1259C39.5384 51.74 39.999 52.2554 40.5774 52.606L42.6506 49.1852C42.7539 49.2478 42.8361 49.3398 42.8867 49.4494L39.255 51.1259ZM40.5774 52.606C41.1559 52.9566 41.8259 53.1263 42.5015 53.0935L42.3072 49.0982C42.4278 49.0923 42.5474 49.1226 42.6506 49.1852L40.5774 52.606Z" fill="black" mask="url(#path-9-inside-1_3488_1147)"/>
<path d="M45.3166 52.1089L45.3165 52.1088L45.3123 52.1183C45.2777 52.1947 45.2206 52.2589 45.1488 52.3022C45.0769 52.3456 44.9935 52.366 44.9098 52.361L44.8858 52.3595L44.8619 52.3592C44.8112 52.3586 44.7609 52.3505 44.7127 52.3352C44.6259 52.2881 44.5585 52.2113 44.5232 52.1184C44.4844 52.0165 44.4874 51.9033 44.5315 51.8036L44.5315 51.8036L44.5332 51.7997C44.5564 51.7466 44.59 51.6986 44.6321 51.6587C44.6741 51.6187 44.7237 51.5876 44.778 51.5671L44.8002 51.5587L44.8221 51.5493C44.869 51.529 44.9195 51.5186 44.9706 51.5186C45.0166 51.5186 45.0623 51.5271 45.1052 51.5436C45.1419 51.5628 45.1747 51.5886 45.202 51.6198L45.202 51.6198C45.2325 51.6546 45.2554 51.6953 45.2692 51.7394L45.2889 51.802L45.3166 51.8616C45.3346 51.9003 45.344 51.9425 45.344 51.9852C45.344 52.0279 45.3346 52.0701 45.3166 52.1089Z" fill="black" stroke="black" stroke-width="2"/>
<path d="M48.5955 53.3537L48.5762 53.3952L48.5607 53.4383C48.5338 53.5135 48.4835 53.578 48.4172 53.6226C48.3579 53.6624 48.2885 53.6843 48.2174 53.686C48.169 53.6785 48.1219 53.6639 48.0777 53.6426L48.0465 53.6276L48.0145 53.6148C47.9375 53.584 47.8716 53.5309 47.8252 53.4623C47.7787 53.3938 47.7539 53.3128 47.7539 53.23C47.7539 53.1472 47.7787 53.0663 47.8252 52.9977C47.8716 52.9291 47.9375 52.876 48.0145 52.8453L48.0145 52.8453L48.0183 52.8437C48.1257 52.8003 48.2455 52.7995 48.3533 52.8413C48.4556 52.886 48.5368 52.9684 48.58 53.0714L48.5874 53.089L48.5955 53.1064C48.6135 53.1451 48.6228 53.1873 48.6228 53.23C48.6228 53.2727 48.6135 53.3149 48.5955 53.3537Z" fill="black" stroke="black" stroke-width="2"/>
<path d="M51.6 55.0285C51.5322 55.0694 51.4545 55.091 51.3754 55.0909C51.3021 55.0906 51.2299 55.0733 51.1645 55.0405C51.0664 54.9885 50.9926 54.8999 50.9591 54.794C50.9253 54.6869 50.9354 54.5708 50.9872 54.4712C51.039 54.3716 51.1282 54.2966 51.2353 54.2628C51.341 54.2294 51.4554 54.2389 51.5542 54.2889C51.6562 54.3444 51.7331 54.4368 51.7692 54.5473C51.804 54.6541 51.798 54.7698 51.7528 54.8722C51.716 54.9364 51.6635 54.9902 51.6 55.0285Z" fill="black" stroke="black" stroke-width="2"/>
<path d="M54.7594 56.6259L54.7638 56.6194C54.797 56.5697 54.8201 56.5139 54.8318 56.4552L54.8318 56.4552C54.8435 56.3965 54.8434 56.3361 54.8317 56.2774C54.82 56.2187 54.7968 56.1629 54.7634 56.1133C54.7329 56.0677 54.6944 56.0282 54.6499 55.9964C54.5558 55.9422 54.4446 55.9252 54.3383 55.949L54.3183 55.9534L54.2981 55.9571C54.2477 55.9662 54.1998 55.9855 54.1572 56.0139C54.1147 56.0423 54.0784 56.0791 54.0506 56.1221L54.0448 56.131L54.0448 56.131C54.0123 56.18 53.9902 56.2352 53.9797 56.293C53.9692 56.3508 53.9705 56.4101 53.9835 56.4673L54.7594 56.6259ZM54.7594 56.6259L54.7551 56.6325M54.7594 56.6259L54.7551 56.6325M54.7551 56.6325C54.7174 56.6908 54.6657 56.7387 54.6047 56.7718C54.5458 56.8038 54.4802 56.8209 54.4133 56.8219C54.329 56.8191 54.2467 56.7964 54.173 56.7558M54.7551 56.6325L54.173 56.7558M54.173 56.7558C54.0776 56.6857 54.0102 56.5835 53.9836 56.4676L54.173 56.7558Z" fill="black" stroke="black" stroke-width="2"/>
<path d="M57.4178 58.8511C57.3369 58.9298 57.2297 58.9754 57.1172 58.9795C57.0009 58.976 56.8896 58.9317 56.8028 58.8545C56.7556 58.8041 56.7212 58.7432 56.7022 58.6768C56.6826 58.608 56.6803 58.5355 56.6954 58.4656C56.7106 58.3957 56.7427 58.3306 56.789 58.2761C56.8354 58.2216 56.8944 58.1794 56.961 58.1532C57.0275 58.127 57.0995 58.1177 57.1706 58.126C57.2416 58.1343 57.3095 58.16 57.3682 58.2008L57.9392 57.3799L57.3682 58.2008C57.4269 58.2417 57.4746 58.2964 57.5071 58.3601C57.538 58.4205 57.5542 58.4873 57.5546 58.5551C57.5472 58.6671 57.4985 58.7727 57.4178 58.8511Z" fill="black" stroke="black" stroke-width="2"/>
<path d="M58.4601 61.3663L58.4855 61.3266L58.507 61.2847C58.5333 61.2333 58.5701 61.1881 58.615 61.1518C58.6599 61.1155 58.7119 61.0889 58.7676 61.0739C58.8233 61.0588 58.8816 61.0556 58.9386 61.0644C58.9872 61.0719 59.0341 61.0879 59.0769 61.1118C59.1621 61.1805 59.2199 61.278 59.2391 61.3863L59.2455 61.4228L59.2547 61.4587C59.2839 61.5734 59.2672 61.6949 59.2083 61.7975C59.1616 61.8787 59.0914 61.9429 59.0078 61.9823C59.0078 61.9823 59.0077 61.9823 59.0077 61.9823L58.9321 61.9702L58.8556 61.9698C58.7611 61.9692 58.6693 61.9379 58.5942 61.8804C58.5191 61.823 58.4647 61.7426 58.4394 61.6515L58.4341 61.6324L58.4281 61.6136C58.4149 61.5725 58.411 61.5291 58.4165 61.4863C58.422 61.4436 58.4369 61.4026 58.4601 61.3663Z" fill="black" stroke="black" stroke-width="2"/>
<path d="M58.4031 65.3145V65.3145L58.3967 65.3145C58.3195 65.3147 58.2438 65.2953 58.1765 65.2583C58.105 65.1921 58.0575 65.1035 58.0423 65.0066C58.0252 64.8972 58.0505 64.7855 58.1129 64.6942C58.1754 64.6028 58.2704 64.5387 58.3784 64.515C58.4769 64.4934 58.5795 64.5067 58.6688 64.5522C58.7062 64.5816 58.7382 64.6173 58.7636 64.6577C58.794 64.7063 58.8141 64.7607 58.8224 64.8174L58.8224 64.8174C58.8308 64.8742 58.8272 64.9321 58.812 64.9874L58.812 64.9874C58.7969 65.0427 58.7704 65.0943 58.7342 65.1388L58.7256 65.1494L58.7173 65.1603C58.6803 65.2084 58.6327 65.2474 58.5783 65.2742C58.5238 65.3009 58.4638 65.3147 58.4031 65.3145Z" fill="black" stroke="black" stroke-width="2"/>
<path d="M56.1869 67.3056L56.1822 67.3235L56.1781 67.3415C56.1662 67.3936 56.1439 67.4427 56.1125 67.4859L56.9212 68.0741L56.1125 67.4859C56.0841 67.525 56.0487 67.5585 56.0082 67.5848C55.9363 67.6218 55.8581 67.6448 55.7778 67.6525C55.7057 67.6453 55.6357 67.6229 55.5726 67.5867C55.5009 67.5456 55.4402 67.4878 55.3955 67.4182C55.3649 67.3676 55.3445 67.3114 55.3355 67.2529C55.3262 67.193 55.3289 67.1318 55.3437 67.0729C55.3584 67.0141 55.3847 66.9588 55.4211 66.9102C55.4557 66.8642 55.4987 66.8251 55.5479 66.7951C55.5959 66.7695 55.6483 66.7532 55.7024 66.747C55.7595 66.7404 55.8173 66.7452 55.8726 66.7612L56.1499 65.8004L55.8726 66.7612C55.9278 66.7771 55.9793 66.8038 56.0241 66.8398L56.5807 66.1465L56.0241 66.8398C56.0689 66.8758 56.1061 66.9203 56.1336 66.9708L56.1394 66.9814L56.1455 66.9919C56.2002 67.0869 56.2151 67.1997 56.1869 67.3056Z" fill="black" stroke="black" stroke-width="2"/>
<path d="M52.4906 68.3244L52.4987 68.3207L52.5068 68.3169C52.559 68.2923 52.6155 68.2783 52.6732 68.2758C52.7308 68.2733 52.7883 68.2822 52.8424 68.3022C52.8965 68.3221 52.9462 68.3526 52.9884 68.3919C53.0258 68.4268 53.0567 68.4679 53.0797 68.5134C53.1168 68.6178 53.1144 68.7325 53.0726 68.8357L53.0693 68.8439L53.0662 68.8521C53.047 68.902 53.0179 68.9475 52.9806 68.9858C52.9433 69.0241 52.8985 69.0544 52.8491 69.0748L52.8288 69.0832L52.8089 69.0925C52.7688 69.1113 52.725 69.1207 52.6807 69.12L52.6733 69.1199L52.6659 69.1199C52.58 69.1199 52.4959 69.0956 52.4232 69.0498L51.8897 69.8956L52.4232 69.0498C52.3557 69.0072 52.3006 68.9476 52.2635 68.8771C52.2247 68.7765 52.2246 68.6648 52.2637 68.5638C52.3049 68.4573 52.3864 68.3713 52.4906 68.3244Z" fill="black" stroke="black" stroke-width="2"/>
<path d="M45.7055 70.9113L45.7093 70.9043L45.713 70.8973C45.7367 70.852 45.7694 70.8121 45.8091 70.7799C45.8482 70.7483 45.8933 70.7248 45.9416 70.711C46.0512 70.6817 46.168 70.6965 46.267 70.7522C46.3667 70.8084 46.4402 70.9016 46.4716 71.0116L46.4716 71.0116L46.4732 71.0172C46.5067 71.1319 46.4936 71.2552 46.4369 71.3604C46.3976 71.4334 46.3394 71.4936 46.2693 71.5353H46.0795V71.5353L46.0664 71.5354C45.9762 71.5366 45.8881 71.5084 45.8155 71.4549L45.2231 72.2606L45.8155 71.4549C45.7446 71.4028 45.6923 71.3296 45.6658 71.2458C45.6358 71.1334 45.6499 71.0137 45.7055 70.9113Z" fill="black" stroke="black" stroke-width="2"/>
<path d="M49.0055 70.1905L49.0028 70.1832L49 70.1759C48.9803 70.1243 48.971 70.0692 48.9729 70.014C48.9747 69.9587 48.9876 69.9044 49.0108 69.8542C49.034 69.804 49.0669 69.759 49.1078 69.7217C49.1461 69.6868 49.1905 69.6594 49.2389 69.6409C49.2905 69.6252 49.3446 69.6192 49.3985 69.6233C49.4559 69.6277 49.5118 69.6435 49.5631 69.6697C49.6143 69.6959 49.6598 69.732 49.697 69.7759C49.7342 69.8199 49.7623 69.8707 49.7796 69.9256L49.7886 69.9538L49.7992 69.9815C49.8189 70.0331 49.8281 70.0882 49.8263 70.1435C49.8244 70.1987 49.8115 70.253 49.7884 70.3032L50.6963 70.7223L49.7884 70.3032C49.7652 70.3534 49.7322 70.3985 49.6914 70.4357C49.6713 70.454 49.6495 70.4703 49.6264 70.4843C49.6104 70.4836 49.5945 70.4818 49.5787 70.4789L49.4882 70.4624L49.3961 70.4627C49.3109 70.463 49.2277 70.4371 49.1578 70.3883C49.0879 70.3396 49.0347 70.2705 49.0055 70.1905Z" fill="black" stroke="black" stroke-width="2"/>
<path d="M42.3361 71.7229C42.3542 71.6925 42.377 71.6653 42.4035 71.6421L42.5866 71.6007C42.6403 71.5886 42.6958 71.5871 42.75 71.5964C42.8043 71.6058 42.8561 71.6257 42.9027 71.655C42.9492 71.6844 42.9895 71.7226 43.0213 71.7676C43.053 71.8125 43.0756 71.8632 43.0878 71.9169L43.0878 71.9169C43.0999 71.9706 43.1014 72.0261 43.092 72.0804C43.0827 72.1346 43.0628 72.1865 43.0334 72.233C43.0041 72.2795 42.9658 72.3198 42.9209 72.3516C42.8976 72.3681 42.8727 72.3821 42.8467 72.3934H42.6999C42.6003 72.3904 42.5044 72.3548 42.4269 72.292L41.8027 73.061L42.4269 72.292C42.3479 72.2278 42.2927 72.1391 42.2701 72.0399L42.2701 72.0399L42.2694 72.0368C42.2581 71.9882 42.2567 71.9379 42.2652 71.8888C42.2737 71.8397 42.292 71.7928 42.3189 71.7508L42.3277 71.737L42.3361 71.7229ZM42.9922 73.3934V72.4525L43.4981 73.1682C43.3459 73.2758 43.174 73.3523 42.9922 73.3934Z" fill="black" stroke="black" stroke-width="2"/>
<path d="M39.0195 71.1962C39.3815 71.1384 39.7517 71.2255 40.0499 71.4386C40.2036 71.5505 40.3335 71.6919 40.4321 71.8544C40.5306 72.0169 40.5959 72.1975 40.6241 72.3854C40.6523 72.5734 40.6429 72.7652 40.5963 72.9495C40.5498 73.1338 40.4671 73.307 40.353 73.4591C40.128 73.7608 39.7949 73.9636 39.4236 74.0248L38.279 73.6778C38.0231 73.4552 37.8556 73.1482 37.8072 72.8125C37.7826 72.6274 37.795 72.4393 37.8436 72.2589C37.8921 72.0786 37.9759 71.9097 38.0901 71.7619C38.315 71.4602 38.6482 71.2574 39.0195 71.1962ZM39.0195 71.1962L39.1823 72.1828C39.1814 72.183 39.1805 72.1831 39.1796 72.1833M39.0195 71.1962L39.1772 72.1836C39.178 72.1835 39.1788 72.1834 39.1796 72.1833M39.1796 72.1833C39.2797 72.1679 39.3819 72.1917 39.4649 72.2497C39.5098 72.2831 39.5479 72.325 39.577 72.3729C39.6069 72.4222 39.6266 72.4768 39.6352 72.5338L39.6352 72.5338C39.6437 72.5907 39.6409 72.6488 39.6268 72.7046L39.6268 72.7046C39.6127 72.7605 39.5876 72.8129 39.5531 72.859L39.553 72.859L39.5513 72.8613C39.4928 72.9398 39.4109 72.9968 39.3182 73.0248H39.2039C39.1051 73.0241 39.0098 72.988 38.9351 72.9232C38.8616 72.8592 38.813 72.7715 38.7978 72.6754C38.7916 72.623 38.7954 72.5699 38.8092 72.5189C38.8234 72.4661 38.8479 72.4166 38.8814 72.3733L38.8866 72.3665L38.8917 72.3597C38.9615 72.2661 39.0646 72.2029 39.1796 72.1833Z" fill="black" stroke="black" stroke-width="2"/>
<path d="M35.8748 73.3925L35.8748 73.3925C35.8364 73.4113 35.7955 73.424 35.7534 73.4302C35.6518 73.4193 35.5561 73.3759 35.4808 73.3059C35.3984 73.2292 35.3459 73.126 35.3326 73.0145C35.3271 72.9038 35.3642 72.7952 35.4363 72.7108C35.501 72.6351 35.5894 72.5844 35.6863 72.5661C35.7773 72.5762 35.8636 72.6135 35.9334 72.6736C36.0212 72.7546 36.0754 72.8658 36.0849 72.985C36.0941 73.0996 36.0614 73.2134 35.9932 73.3055C35.9592 73.3413 35.9192 73.3707 35.8748 73.3925Z" fill="black" stroke="black" stroke-width="2"/>
<path d="M31.8521 73.1294L31.8517 73.1428C31.8503 73.1937 31.8594 73.2443 31.8783 73.2916C31.8961 73.336 31.9221 73.3765 31.9551 73.411C32.0392 73.4881 32.1493 73.5308 32.2636 73.5305L32.2721 73.5305L32.2807 73.5306C32.3356 73.5314 32.3901 73.5213 32.441 73.5008M31.8521 73.1294L32.441 73.5008M31.8521 73.1294L31.852 73.1161C31.852 73.0019 31.897 72.8923 31.9772 72.811C32.0557 72.7313 32.1618 72.6851 32.2734 72.6817C32.3861 72.6835 32.4938 72.7291 32.5736 72.8089C32.6551 72.8904 32.7009 73.0009 32.7009 73.1162V73.1163C32.7009 73.1712 32.69 73.2256 32.6688 73.2762L31.8521 73.1294ZM32.441 73.5008C32.492 73.4803 32.5384 73.4499 32.5775 73.4114C32.6166 73.3728 32.6476 73.3269 32.6688 73.2762L32.441 73.5008Z" fill="black" stroke="black" stroke-width="2"/>
<path d="M28.9618 72.6687L28.9631 72.6693L28.9616 72.6802V72.7484V72.7488V72.7491V72.7495V72.7498V72.7502V72.7506V72.7509V72.7513V72.7517V72.7521V72.7524V72.7528V72.7532V72.7536V72.754V72.7544V72.7548V72.7552V72.7555V72.7559V72.7563V72.7567V72.7572V72.7576V72.758V72.7584V72.7588V72.7592V72.7596V72.76V72.7605V72.7609V72.7613V72.7617V72.7622V72.7626V72.763V72.7635V72.7639V72.7643V72.7648V72.7652V72.7656V72.7661V72.7665V72.767V72.7674V72.7679V72.7683V72.7688V72.7693V72.7697V72.7702V72.7706V72.7711V72.7716V72.772V72.7725V72.773V72.7734V72.7739V72.7744V72.7749V72.7753V72.7758V72.7763V72.7768V72.7773V72.7778V72.7782V72.7787V72.7792V72.7797V72.7802V72.7807V72.7812V72.7817V72.7822V72.7827V72.7832V72.7837V72.7842V72.7847V72.7852V72.7857V72.7862V72.7868V72.7873V72.7878V72.7883V72.7888V72.7893V72.7899V72.7904V72.7909V72.7914V72.7919V72.7925V72.793V72.7935V72.794V72.7946V72.7951V72.7956V72.7962V72.7967V72.7972V72.7978V72.7983V72.7988V72.7994V72.7999V72.8005V72.801V72.8016V72.8021V72.8026V72.8032V72.8037V72.8043V72.8048V72.8054V72.8059V72.8065V72.807V72.8076V72.8081V72.8087V72.8092V72.8098V72.8104V72.8109V72.8115V72.812V72.8126V72.8132V72.8137V72.8143V72.8148V72.8154V72.816V72.8165V72.8171V72.8177V72.8182V72.8188V72.8194V72.8199V72.8205V72.8211V72.8216V72.8222V72.8228V72.8234V72.8239V72.8245V72.8251V72.8257V72.8262V72.8268V72.8274V72.828V72.8285V72.8291V72.8297V72.8303V72.8308V72.8314V72.832V72.8326V72.8331V72.8337V72.8343V72.8349V72.8355V72.836V72.8366V72.8372V72.8378V72.8384V72.839V72.8395V72.8401V72.8407V72.8413V72.8419V72.8424V72.843V72.8436V72.8442V72.8448V72.8454V72.8459V72.8465V72.8471V72.8477V72.8483V72.8489V72.8494V72.85V72.8506V72.8512V72.8518V72.8523V72.8529V72.8535V72.8541V72.8547V72.8553V72.8558V72.8564V72.857V72.8576V72.8582V72.8587V72.8593V72.8599V72.8605V72.8611V72.8616V72.8622V72.8628V72.8634V72.864V72.8645V72.8651V72.8657V72.8663V72.8669V72.8674V72.868V72.8686V72.8692V72.8697V72.8703V72.8709V72.8715V72.872V72.8726V72.8732V72.8737V72.8743V72.8749V72.8755V72.876V72.8766V72.8772V72.8777V72.8783V72.8789V72.8794V72.88V72.8806V72.8811V72.8817V72.8823V72.8828V72.8834V72.8839V72.8845V72.8851V72.8856V72.8862V72.8867V72.8873V72.8878V72.8884V72.8889V72.8895V72.89V72.8906V72.8912V72.8917V72.8922V72.8928V72.8933V72.8939V72.8944V72.895V72.8955V72.8961V72.8966V72.8971V72.8977V72.8982V72.8988V72.8993V72.8998V72.9004V72.9009V72.9014V72.902V72.9025V72.903V72.9035V72.9041V72.9046V72.9051V72.9056V72.9062V72.9067V72.9072V72.9077V72.9082V72.9087V72.9093V72.9098V72.9103V72.9108V72.9113V72.9118V72.9123V72.9128V72.9133V72.9138V72.9143V72.9148V72.9153V72.9158V72.9163V72.9168V72.9173V72.9178V72.9183V72.9188V72.9192V72.9197V72.9202V72.9207V72.9212V72.9216V72.9221V72.9226V72.9231V72.9235V72.924V72.9245V72.925V72.9254V72.9259V72.9263V72.9268V72.9273V72.9277V72.9282V72.9286V72.9291V72.9295V72.93V72.9304V72.9309V72.9313V72.9317V72.9322V72.9326V72.9331V72.9335V72.9339V72.9344V72.9348V72.9352V72.9356V72.9361V72.9365V72.9369V72.9373V72.9377V72.9381V72.9385V72.9389V72.9394V72.9398V72.9402V72.9406V72.941V72.9414V72.9417V72.9421V72.9425V72.9429V72.9433V72.9437V72.9441V72.9444V72.9448V72.9452V72.9456V72.9459V72.9463V72.9467V72.947V72.9474V72.9477V72.9481V72.9485V72.9488V72.9492V72.9495V72.9498V72.9502V72.9505V72.9509V72.9512V72.9515V72.9519V72.9522V72.9525V72.9528V72.9532V72.9535V72.9538V72.9541V72.9544V72.9547V72.955V72.9553V72.9556V72.9559V72.9562V72.9565V72.9568V72.9571V72.9574V72.9577V72.9579V72.9582V72.9585V72.9588V72.959V72.9593V72.9595V72.9598V72.9601V72.9603V72.9606V72.9608V72.9611V72.9613V72.9615V72.9618V72.962V72.9623V72.9625V72.9627V72.9629V72.9631V72.9634V72.9636V72.9638V72.964V72.9642V72.9644V72.9646V72.9648V72.965V72.9652V72.9654V72.9656V72.9657V72.9659V72.9661V72.9663V72.9664V72.9666V72.9668V72.9669V72.9671V72.9672V72.9674V72.9675V72.9677V72.9678V72.9679V72.9681V72.9682V72.9683V72.9685V72.9686V72.9687V72.9688V72.9689V72.969V72.9691V72.9692V72.9693V72.9694V72.9695V72.9696V72.9697V72.9698V72.9698V72.9699V72.97V72.9701V72.9701V72.9702V72.9702V72.9703V72.9703V72.9704V72.9704V72.9705V72.9705V72.9705V72.9706V72.9706V72.9706V72.9706V72.9706V72.9706V72.9706V73.1976L29.0596 73.4023C29.06 73.4032 29.0604 73.4041 29.0608 73.405C28.9984 73.4023 28.9366 73.3918 28.8768 73.3736C28.8276 73.3482 28.7832 73.3141 28.7461 73.2727L28.7462 73.2727L28.7406 73.2667C28.6724 73.1919 28.6356 73.0937 28.6378 72.9925L28.6381 72.9816V72.9706V72.7888V72.7638L28.6368 72.7388C28.635 72.702 28.6344 72.6652 28.635 72.6284C28.6434 72.6232 28.6521 72.6185 28.6611 72.6144C28.7176 72.6029 28.7756 72.6014 28.8325 72.6099L28.9618 72.6687Z" fill="black" stroke="black" stroke-width="2"/>
<rect x="1.75" y="1.75" width="90.249" height="90.249" rx="2" stroke="black" stroke-width="2"/>
</svg>
