<svg width="15" height="15" viewBox="0 0 15 15" fill="none" xmlns="http://www.w3.org/2000/svg">
<path fill-rule="evenodd" clip-rule="evenodd" d="M4.6885 7.76612C4.6885 7.0931 4.14227 6.54688 3.46925 6.54688C2.79622 6.54688 2.25 7.0931 2.25 7.76612C2.25 8.43915 2.79622 8.98537 3.46925 8.98537C4.14227 8.98537 4.6885 8.43915 4.6885 7.76612ZM4.02345 7.76612C4.02345 8.07204 3.77517 8.32033 3.46925 8.32033C3.16333 8.32033 2.91504 8.07204 2.91504 7.76612C2.91504 7.4602 3.16333 7.21192 3.46925 7.21192C3.77517 7.21192 4.02345 7.4602 4.02345 7.76612Z" fill="#899093"/>
<path fill-rule="evenodd" clip-rule="evenodd" d="M4.6885 11.313C4.6885 10.64 4.14227 10.0938 3.46925 10.0938C2.79622 10.0938 2.25 10.64 2.25 11.313C2.25 11.986 2.79622 12.5322 3.46925 12.5322C4.14227 12.5322 4.6885 11.986 4.6885 11.313ZM4.02345 11.313C4.02345 11.6189 3.77517 11.8672 3.46925 11.8672C3.16333 11.8672 2.91504 11.6189 2.91504 11.313C2.91504 11.0071 3.16333 10.7588 3.46925 10.7588C3.77517 10.7588 4.02345 11.0071 4.02345 11.313Z" fill="#899093"/>
<path fill-rule="evenodd" clip-rule="evenodd" d="M4.6885 4.21925C4.6885 3.54622 4.14227 3 3.46925 3C2.79622 3 2.25 3.54622 2.25 4.21925C2.25 4.89227 2.79622 5.4385 3.46925 5.4385C4.14227 5.4385 4.6885 4.89227 4.6885 4.21925ZM4.02345 4.21925C4.02345 4.52517 3.77517 4.77345 3.46925 4.77345C3.16333 4.77345 2.91504 4.52517 2.91504 4.21925C2.91504 3.91333 3.16333 3.66504 3.46925 3.66504C3.77517 3.66504 4.02345 3.91333 4.02345 4.21925Z" fill="#899093"/>
<path fill-rule="evenodd" clip-rule="evenodd" d="M3.13281 5.10596V6.87542C3.13281 7.05898 3.28178 7.20795 3.46533 7.20795C3.64889 7.20795 3.79786 7.05898 3.79786 6.87542V5.10596C3.79786 4.92241 3.64889 4.77344 3.46533 4.77344C3.28178 4.77344 3.13281 4.92241 3.13281 5.10596Z" fill="#899093"/>
<path fill-rule="evenodd" clip-rule="evenodd" d="M3.13672 8.66455V10.426C3.13672 10.6096 3.28569 10.7586 3.46924 10.7586C3.65279 10.7586 3.80176 10.6096 3.80176 10.426V8.66455C3.80176 8.481 3.65279 8.33203 3.46924 8.33203C3.28569 8.33203 3.13672 8.481 3.13672 8.66455Z" fill="#899093"/>
<path fill-rule="evenodd" clip-rule="evenodd" d="M6.12549 5.10645H9.00735C9.1909 5.10645 9.33987 4.95748 9.33987 4.77393C9.33987 4.59038 9.1909 4.44141 9.00735 4.44141H6.12549C5.94194 4.44141 5.79297 4.59038 5.79297 4.77393C5.79297 4.95748 5.94194 5.10645 6.12549 5.10645Z" fill="#899093"/>
<path fill-rule="evenodd" clip-rule="evenodd" d="M6.12549 8.65333H9.00735C9.1909 8.65333 9.33987 8.50436 9.33987 8.3208C9.33987 8.13725 9.1909 7.98828 9.00735 7.98828H6.12549C5.94194 7.98828 5.79297 8.13725 5.79297 8.3208C5.79297 8.50436 5.94194 8.65333 6.12549 8.65333Z" fill="#899093"/>
<path fill-rule="evenodd" clip-rule="evenodd" d="M6.12549 12.1992H9.00735C9.1909 12.1992 9.33987 12.0503 9.33987 11.8667C9.33987 11.6831 9.1909 11.5342 9.00735 11.5342H6.12549C5.94194 11.5342 5.79297 11.6831 5.79297 11.8667C5.79297 12.0503 5.94194 12.1992 6.12549 12.1992Z" fill="#899093"/>
<path fill-rule="evenodd" clip-rule="evenodd" d="M6.12549 3.99708H11.6675C11.8511 3.99708 12.0001 3.84811 12.0001 3.66455C12.0001 3.481 11.8511 3.33203 11.6675 3.33203H6.12549C5.94194 3.33203 5.79297 3.481 5.79297 3.66455C5.79297 3.84811 5.94194 3.99708 6.12549 3.99708Z" fill="#899093"/>
<path fill-rule="evenodd" clip-rule="evenodd" d="M6.12549 7.54395H11.6675C11.8511 7.54395 12.0001 7.39498 12.0001 7.21143C12.0001 7.02788 11.8511 6.87891 11.6675 6.87891H6.12549C5.94194 6.87891 5.79297 7.02788 5.79297 7.21143C5.79297 7.39498 5.94194 7.54395 6.12549 7.54395Z" fill="#899093"/>
<path fill-rule="evenodd" clip-rule="evenodd" d="M6.12549 11.0918H11.6675C11.8511 11.0918 12.0001 10.9428 12.0001 10.7593C12.0001 10.5757 11.8511 10.4268 11.6675 10.4268H6.12549C5.94194 10.4268 5.79297 10.5757 5.79297 10.7593C5.79297 10.9428 5.94194 11.0918 6.12549 11.0918Z" fill="#899093"/>
<rect x="0.5" y="0.5" width="14" height="14" rx="2.5" stroke="#899093"/>
</svg>
