<svg width="242" height="305" viewBox="0 0 242 305" fill="none" xmlns="http://www.w3.org/2000/svg">
<g filter="url(#filter0_d_1_280)">
<rect x="42" y="42" width="158" height="220.246" fill="#FFDB87"/>
</g>
<path d="M77.3291 253.892H58.0339C57.9202 253.892 57.8111 253.85 57.7307 253.777C57.6503 253.703 57.6051 253.604 57.6051 253.5C57.6029 251.839 56.8795 250.246 55.5933 249.072C54.3072 247.897 52.5634 247.236 50.7446 247.234C50.6309 247.234 50.5218 247.193 50.4414 247.12C50.361 247.046 50.3158 246.947 50.3158 246.843V229.221C50.3158 229.117 50.361 229.017 50.4414 228.944C50.5218 228.87 50.6309 228.829 50.7446 228.829C50.8583 228.829 50.9674 228.87 51.0478 228.944C51.1282 229.017 51.1734 229.117 51.1734 229.221V246.462C53.0684 246.56 54.8574 247.292 56.1995 248.518C57.5417 249.744 58.3431 251.378 58.4511 253.108H77.3291C77.4428 253.108 77.5519 253.15 77.6323 253.223C77.7127 253.296 77.7579 253.396 77.7579 253.5C77.7579 253.604 77.7127 253.703 77.6323 253.777C77.5519 253.85 77.4428 253.892 77.3291 253.892Z" fill="black"/>
<path d="M77.3292 251.542H53.3174C53.2037 251.542 53.0946 251.501 53.0142 251.427C52.9338 251.354 52.8886 251.254 52.8886 251.15V229.221C52.8886 229.117 52.9338 229.017 53.0142 228.944C53.0946 228.87 53.2037 228.829 53.3174 228.829C53.4311 228.829 53.5402 228.87 53.6206 228.944C53.701 229.017 53.7462 229.117 53.7462 229.221V250.759H77.3292C77.443 250.759 77.552 250.8 77.6324 250.873C77.7128 250.947 77.758 251.046 77.758 251.15C77.758 251.254 77.7128 251.354 77.6324 251.427C77.552 251.501 77.443 251.542 77.3292 251.542Z" fill="black"/>
<path d="M191.684 229.221L191.684 246.843C191.684 246.946 191.639 247.046 191.559 247.119C191.478 247.193 191.369 247.234 191.255 247.234C189.437 247.236 187.693 247.897 186.407 249.071C185.121 250.246 184.397 251.839 184.395 253.5C184.395 253.604 184.35 253.703 184.269 253.777C184.189 253.85 184.08 253.891 183.966 253.891L164.671 253.891C164.557 253.891 164.448 253.85 164.368 253.777C164.287 253.703 164.242 253.604 164.242 253.5C164.242 253.396 164.287 253.296 164.368 253.223C164.448 253.149 164.557 253.108 164.671 253.108L183.549 253.108C183.657 251.377 184.458 249.744 185.8 248.518C187.143 247.292 188.932 246.56 190.827 246.462L190.827 229.221C190.827 229.117 190.872 229.017 190.952 228.944C191.033 228.87 191.142 228.829 191.255 228.829C191.369 228.829 191.478 228.87 191.559 228.944C191.639 229.017 191.684 229.117 191.684 229.221Z" fill="black"/>
<path d="M189.112 229.221L189.112 251.15C189.112 251.254 189.066 251.354 188.986 251.427C188.906 251.501 188.796 251.542 188.683 251.542L164.671 251.542C164.557 251.542 164.448 251.501 164.368 251.427C164.287 251.354 164.242 251.254 164.242 251.15C164.242 251.046 164.287 250.947 164.368 250.873C164.448 250.8 164.557 250.759 164.671 250.759L188.254 250.759L188.254 229.221C188.254 229.117 188.299 229.017 188.38 228.944C188.46 228.87 188.569 228.829 188.683 228.829C188.796 228.829 188.906 228.87 188.986 228.944C189.066 229.017 189.112 229.117 189.112 229.221Z" fill="black"/>
<path d="M164.671 48.8353L183.966 48.8353C184.08 48.8353 184.189 48.8765 184.269 48.95C184.35 49.0234 184.395 49.123 184.395 49.2269C184.397 50.888 185.121 52.4806 186.407 53.6552C187.693 54.8298 189.437 55.4905 191.255 55.4925C191.369 55.4925 191.478 55.5337 191.559 55.6072C191.639 55.6806 191.684 55.7802 191.684 55.8841L191.684 73.5061C191.684 73.61 191.639 73.7096 191.559 73.783C191.478 73.8564 191.369 73.8977 191.255 73.8977C191.142 73.8977 191.033 73.8564 190.952 73.783C190.872 73.7096 190.827 73.61 190.827 73.5061L190.827 56.2651C188.932 56.1665 187.143 55.4345 185.8 54.2088C184.458 52.983 183.657 51.3491 183.549 49.6185L164.671 49.6185C164.557 49.6185 164.448 49.5772 164.368 49.5038C164.287 49.4303 164.242 49.3307 164.242 49.2269C164.242 49.123 164.287 49.0234 164.368 48.95C164.448 48.8765 164.557 48.8353 164.671 48.8353Z" fill="black"/>
<path d="M164.671 51.1849L188.683 51.1849C188.797 51.1849 188.906 51.2261 188.986 51.2996C189.066 51.373 189.112 51.4726 189.112 51.5765L189.112 73.5061C189.112 73.61 189.066 73.7096 188.986 73.783C188.906 73.8564 188.797 73.8977 188.683 73.8977C188.569 73.8977 188.46 73.8564 188.38 73.783C188.299 73.7096 188.254 73.61 188.254 73.5061L188.254 51.9681L164.671 51.9681C164.557 51.9681 164.448 51.9268 164.368 51.8534C164.287 51.7799 164.242 51.6803 164.242 51.5765C164.242 51.4726 164.287 51.373 164.368 51.2996C164.448 51.2261 164.557 51.1849 164.671 51.1849Z" fill="black"/>
<path d="M50.3158 73.506L50.3158 55.884C50.3158 55.7802 50.361 55.6805 50.4414 55.6071C50.5218 55.5337 50.6309 55.4924 50.7446 55.4924C52.5634 55.4904 54.3072 54.8297 55.5933 53.6551C56.8795 52.4805 57.603 50.8879 57.6051 49.2268C57.6051 49.1229 57.6503 49.0233 57.7307 48.9499C57.8111 48.8765 57.9202 48.8352 58.0339 48.8352L77.3291 48.8352C77.4428 48.8352 77.5519 48.8765 77.6323 48.9499C77.7127 49.0233 77.7579 49.1229 77.7579 49.2268C77.7579 49.3307 77.7127 49.4303 77.6323 49.5037C77.5519 49.5771 77.4428 49.6184 77.3291 49.6184L58.4511 49.6184C58.3431 51.3491 57.5417 52.983 56.1995 54.2087C54.8574 55.4345 53.0684 56.1664 51.1734 56.265L51.1734 73.506C51.1734 73.6099 51.1282 73.7095 51.0478 73.7829C50.9674 73.8564 50.8583 73.8976 50.7446 73.8976C50.6309 73.8976 50.5218 73.8564 50.4414 73.7829C50.361 73.7095 50.3158 73.6099 50.3158 73.506Z" fill="black"/>
<path d="M52.8885 73.506L52.8885 51.5764C52.8885 51.4726 52.9337 51.3729 53.0141 51.2995C53.0945 51.2261 53.2036 51.1848 53.3173 51.1848L77.3291 51.1848C77.4428 51.1848 77.5519 51.2261 77.6323 51.2995C77.7127 51.373 77.7579 51.4726 77.7579 51.5764C77.7579 51.6803 77.7127 51.7799 77.6323 51.8533C77.5519 51.9268 77.4428 51.968 77.3291 51.968L53.7461 51.968L53.7461 73.506C53.7461 73.6099 53.7009 73.7095 53.6205 73.7829C53.5401 73.8564 53.431 73.8976 53.3173 73.8976C53.2036 73.8976 53.0945 73.8564 53.0141 73.7829C52.9337 73.7095 52.8885 73.6099 52.8885 73.506Z" fill="black"/>
<defs>
<filter id="filter0_d_1_280" x="0" y="0" width="242" height="304.246" filterUnits="userSpaceOnUse" color-interpolation-filters="sRGB">
<feFlood flood-opacity="0" result="BackgroundImageFix"/>
<feColorMatrix in="SourceAlpha" type="matrix" values="0 0 0 0 0 0 0 0 0 0 0 0 0 0 0 0 0 0 127 0" result="hardAlpha"/>
<feMorphology radius="2" operator="dilate" in="SourceAlpha" result="effect1_dropShadow_1_280"/>
<feOffset/>
<feGaussianBlur stdDeviation="20"/>
<feComposite in2="hardAlpha" operator="out"/>
<feColorMatrix type="matrix" values="0 0 0 0 0.772549 0 0 0 0 0.807843 0 0 0 0 0.827451 0 0 0 1 0"/>
<feBlend mode="normal" in2="BackgroundImageFix" result="effect1_dropShadow_1_280"/>
<feBlend mode="normal" in="SourceGraphic" in2="effect1_dropShadow_1_280" result="shape"/>
</filter>
</defs>
</svg>
