<svg width="26" height="26" viewBox="0 0 26 26" fill="none" xmlns="http://www.w3.org/2000/svg">
<g clip-path="url(#clip0_4012_734)">
<path d="M21.6668 15.1667C21.63 13.4205 21.0492 11.7293 20.0054 10.3289C19.5763 9.55783 18.9498 8.91473 18.1902 8.4656C18.0529 8.38499 17.9116 8.31137 17.7668 8.24503V2.16667C17.7661 1.59224 17.5376 1.04154 17.1315 0.635362C16.7253 0.229182 16.1746 0.000688072 15.6002 0L6.93349 0C6.35907 0.000688072 5.80837 0.229182 5.40219 0.635362C4.99601 1.04154 4.76751 1.59224 4.76682 2.16667V7.36667C4.41392 7.3651 4.06901 7.47176 3.77859 7.67225C3.48817 7.87275 3.26619 8.15746 3.14257 8.48801C3.01894 8.81855 2.99962 9.17905 3.08719 9.52092C3.17477 9.86279 3.36504 10.1696 3.63236 10.4C3.44455 10.5606 3.29377 10.7599 3.19038 10.9843C3.08699 11.2088 3.03345 11.4529 3.03345 11.7C3.03345 11.9471 3.08699 12.1912 3.19038 12.4157C3.29377 12.6401 3.44455 12.8394 3.63236 13C3.44455 13.1606 3.29377 13.3599 3.19038 13.5843C3.08699 13.8088 3.03345 14.0529 3.03345 14.3C3.03345 14.5471 3.08699 14.7912 3.19038 15.0157C3.29377 15.2401 3.44455 15.4394 3.63236 15.6C3.36504 15.8304 3.17477 16.1372 3.08719 16.4791C2.99962 16.8209 3.01894 17.1814 3.14257 17.512C3.26619 17.8425 3.48817 18.1272 3.77859 18.3277C4.06901 18.5282 4.41392 18.6349 4.76682 18.6333C4.76751 19.2078 4.99601 19.7585 5.40219 20.1646C5.80837 20.5708 6.35907 20.7993 6.93349 20.8H9.22149L10.6602 25.1112C10.7463 25.3697 10.9116 25.5946 11.1325 25.754C11.3534 25.9135 11.6188 25.9996 11.8913 26H19.6913C19.8888 26 20.0838 25.9549 20.2613 25.8683C20.4389 25.7816 20.5943 25.6556 20.7159 25.4999C20.8374 25.3442 20.9219 25.1628 20.9629 24.9695C21.0038 24.7762 21.0002 24.5762 20.9523 24.3845L20.5519 22.7812C20.4474 22.3809 20.464 21.9587 20.5995 21.5679C21.3308 19.514 21.6922 17.3467 21.6668 15.1667ZM13.8668 0.866667V1.3C13.8668 1.41493 13.8212 1.52515 13.7399 1.60641C13.6586 1.68768 13.5484 1.73333 13.4335 1.73333H9.10016C8.98523 1.73333 8.87501 1.68768 8.79374 1.60641C8.71248 1.52515 8.66682 1.41493 8.66682 1.3V0.866667H13.8668ZM5.63349 2.16667C5.63349 1.82189 5.77045 1.49123 6.01425 1.24743C6.25805 1.00363 6.58871 0.866667 6.93349 0.866667H7.80016V1.3C7.80016 1.64478 7.93712 1.97544 8.18092 2.21924C8.42472 2.46304 8.75538 2.6 9.10016 2.6H13.4335C13.7783 2.6 14.1089 2.46304 14.3527 2.21924C14.5965 1.97544 14.7335 1.64478 14.7335 1.3V0.866667H15.6002C15.9449 0.866667 16.2756 1.00363 16.5194 1.24743C16.7632 1.49123 16.9002 1.82189 16.9002 2.16667V7.93C16.4942 7.8215 16.0753 7.76944 15.6552 7.7753C15.5685 7.7753 15.4767 7.78093 15.3753 7.78527C14.8158 7.82092 14.2541 7.79914 13.6991 7.72027C13.4256 7.68211 13.156 7.61961 12.8936 7.5335C12.8806 7.52917 12.8676 7.5257 12.855 7.52223C12.6274 7.41787 12.3799 7.36407 12.1295 7.36451C11.8791 7.36496 11.6317 7.41966 11.4045 7.52483C11.1773 7.63001 10.9755 7.78317 10.8131 7.97378C10.6507 8.16438 10.5316 8.38791 10.4639 8.62897C10.3568 9.02622 10.3926 9.44845 10.565 9.822C10.7374 10.1956 11.0355 10.4967 11.4072 10.673C12.5624 11.2919 13.842 11.6429 15.1512 11.7C15.3928 11.6939 15.6304 11.7622 15.8319 11.8956C16.0334 12.029 16.1891 12.221 16.2779 12.4458C16.6835 13.3532 16.4135 14.9002 15.7003 15.756C15.1055 16.4611 14.6901 17.2996 14.4895 18.2H6.93349C6.88357 18.1984 6.83379 18.1938 6.78442 18.1861C7.09865 17.9093 7.30094 17.5272 7.35329 17.1117C7.40564 16.6962 7.30443 16.2759 7.06869 15.9298C7.35558 15.8322 7.61157 15.6606 7.81067 15.4322C8.00978 15.2037 8.14493 14.9267 8.2024 14.6292C8.25987 14.3317 8.23762 14.0243 8.1379 13.7382C8.03818 13.452 7.86455 13.1974 7.63462 13C7.86455 12.8026 8.03818 12.548 8.1379 12.2618C8.23762 11.9757 8.25987 11.6683 8.2024 11.3708C8.14493 11.0733 8.00978 10.7963 7.81067 10.5678C7.61157 10.3394 7.35558 10.1678 7.06869 10.0702C7.24475 9.8096 7.34657 9.50596 7.36324 9.19187C7.37991 8.87779 7.31081 8.56508 7.16333 8.28727C7.01585 8.00946 6.79556 7.77701 6.52606 7.61484C6.25657 7.45266 5.94802 7.36687 5.63349 7.36667V2.16667ZM3.90016 9.1C3.90016 8.87015 3.99147 8.64971 4.154 8.48717C4.31653 8.32464 4.53697 8.23333 4.76682 8.23333H5.63349C5.86334 8.23333 6.08378 8.32464 6.24632 8.48717C6.40885 8.64971 6.50016 8.87015 6.50016 9.1C6.50016 9.32985 6.40885 9.55029 6.24632 9.71283C6.08378 9.87536 5.86334 9.96667 5.63349 9.96667H4.76682C4.53697 9.96667 4.31653 9.87536 4.154 9.71283C3.99147 9.55029 3.90016 9.32985 3.90016 9.1ZM3.90016 11.7C3.90016 11.4701 3.99147 11.2497 4.154 11.0872C4.31653 10.9246 4.53697 10.8333 4.76682 10.8333H6.50016C6.73001 10.8333 6.95045 10.9246 7.11298 11.0872C7.27551 11.2497 7.36682 11.4701 7.36682 11.7C7.36682 11.9299 7.27551 12.1503 7.11298 12.3128C6.95045 12.4754 6.73001 12.5667 6.50016 12.5667H4.76682C4.53697 12.5667 4.31653 12.4754 4.154 12.3128C3.99147 12.1503 3.90016 11.9299 3.90016 11.7ZM3.90016 14.3C3.90016 14.0701 3.99147 13.8497 4.154 13.6872C4.31653 13.5246 4.53697 13.4333 4.76682 13.4333H6.50016C6.73001 13.4333 6.95045 13.5246 7.11298 13.6872C7.27551 13.8497 7.36682 14.0701 7.36682 14.3C7.36682 14.5299 7.27551 14.7503 7.11298 14.9128C6.95045 15.0754 6.73001 15.1667 6.50016 15.1667H4.76682C4.53697 15.1667 4.31653 15.0754 4.154 14.9128C3.99147 14.7503 3.90016 14.5299 3.90016 14.3ZM3.90016 16.9C3.90016 16.6701 3.99147 16.4497 4.154 16.2872C4.31653 16.1246 4.53697 16.0333 4.76682 16.0333H5.63349C5.86334 16.0333 6.08378 16.1246 6.24632 16.2872C6.40885 16.4497 6.50016 16.6701 6.50016 16.9C6.50016 17.1299 6.40885 17.3503 6.24632 17.5128C6.08378 17.6754 5.86334 17.7667 5.63349 17.7667H4.76682C4.53697 17.7667 4.31653 17.6754 4.154 17.5128C3.99147 17.3503 3.90016 17.1299 3.90016 16.9ZM5.63349 18.6333C5.63782 18.6333 5.64216 18.6333 5.64692 18.6333C6.01828 18.9119 6.46929 19.0638 6.93349 19.0667H14.3617C14.3405 19.3551 14.3392 19.6447 14.3578 19.9333H6.93349C6.58871 19.9333 6.25805 19.7964 6.01425 19.5526C5.77045 19.3088 5.63349 18.9781 5.63349 18.6333ZM19.7095 22.9918L20.1103 24.5951C20.1262 24.659 20.1274 24.7257 20.1137 24.79C20.1 24.8544 20.0719 24.9149 20.0314 24.9667C19.9908 25.0186 19.939 25.0606 19.8799 25.0894C19.8207 25.1183 19.7558 25.1333 19.69 25.1333H11.89C11.799 25.1334 11.7103 25.1047 11.6365 25.0515C11.5627 24.9983 11.5075 24.9233 11.4787 24.8369L10.1345 20.8H14.47C14.5365 21.1545 14.6364 21.5018 14.7686 21.8374C14.8144 21.9421 14.8997 22.0245 15.006 22.0666C15.1122 22.1087 15.2308 22.1071 15.3359 22.0622C15.441 22.0173 15.5241 21.9327 15.5671 21.8268C15.6101 21.7209 15.6095 21.6023 15.5655 21.4968C15.5174 21.3824 14.4024 18.6671 16.3667 16.3107C17.2949 15.1961 17.6108 13.3038 17.07 12.0922C16.9134 11.7198 16.6506 11.4018 16.3144 11.1779C15.9781 10.954 15.5834 10.8342 15.1794 10.8333C13.9946 10.7796 12.837 10.46 11.7925 9.8982C11.6042 9.81034 11.452 9.66014 11.3616 9.47301C11.2713 9.28588 11.2484 9.07329 11.2967 8.8712C11.3304 8.74714 11.3913 8.63214 11.475 8.53452C11.5587 8.43691 11.663 8.35913 11.7804 8.30682C11.8979 8.25451 12.0255 8.22899 12.154 8.23209C12.2825 8.23519 12.4087 8.26685 12.5235 8.32477C12.5609 8.3437 12.6009 8.35698 12.6422 8.3642C12.9464 8.46359 13.2588 8.53609 13.5756 8.58087C14.1842 8.66814 14.8002 8.69268 15.4138 8.6541C15.5092 8.6502 15.5963 8.64673 15.676 8.645C16.4065 8.64156 17.1241 8.83818 17.7508 9.21353C18.3906 9.59059 18.9159 10.1345 19.2705 10.787C19.2783 10.8006 19.287 10.8138 19.2965 10.8264C20.2418 12.079 20.768 13.5978 20.8002 15.1667C20.8245 17.2475 20.4799 19.3161 19.7823 21.2767C19.5886 21.8285 19.5633 22.4255 19.7095 22.9918Z" fill="white"/>
</g>
<defs>
<clipPath id="clip0_4012_734">
<rect width="26" height="26" fill="white"/>
</clipPath>
</defs>
</svg>
