<svg width="42" height="42" viewBox="0 0 42 42" fill="none" xmlns="http://www.w3.org/2000/svg">
<path fill-rule="evenodd" clip-rule="evenodd" d="M24.9309 26.9745C25.0148 26.9916 25.0993 27 25.1832 27C25.3473 27 25.5114 26.968 25.6675 26.9046C25.9024 26.8076 26.1007 26.6457 26.2375 26.4402C26.3786 26.2327 26.4544 25.989 26.4569 25.7298V14.9095C26.4569 14.4072 26.253 13.9153 25.8968 13.5594C25.5413 13.2039 25.0496 13 24.5474 13H16.9095C16.3998 13 15.92 13.1986 15.5594 13.5594C15.1989 13.9199 15 14.3995 15 14.9095V25.7329C15.0013 25.9868 15.0771 26.2314 15.2157 26.4359C15.3556 26.6457 15.5538 26.8076 15.7913 26.9055C16.0256 27.0006 16.2786 27.0246 16.5278 26.9742C16.751 26.9282 16.9561 26.8244 17.1246 26.6728L20.7284 24.215L24.3317 26.6728C24.5001 26.8244 24.7053 26.9282 24.9309 26.9745Z" fill="#FFFFFF"/>
<path d="M20.3333 8.33333V5.66667C20.3333 5.48986 20.4036 5.32029 20.5286 5.19526C20.6536 5.07024 20.8232 5 21 5C21.1768 5 21.3464 5.07024 21.4714 5.19526C21.5964 5.32029 21.6667 5.48986 21.6667 5.66667V8.33333C21.6667 8.51014 21.5964 8.67971 21.4714 8.80474C21.3464 8.92976 21.1768 9 21 9C20.8232 9 20.6536 8.92976 20.5286 8.80474C20.4036 8.67971 20.3333 8.51014 20.3333 8.33333ZM20.3333 36.3333C20.3333 36.5101 20.4036 36.6797 20.5286 36.8047C20.6536 36.9298 20.8232 37 21 37C21.1768 37 21.3464 36.9298 21.4714 36.8047C21.5964 36.6797 21.6667 36.5101 21.6667 36.3333V33.6667C21.6667 33.4899 21.5964 33.3203 21.4714 33.1953C21.3464 33.0702 21.1768 33 21 33C20.8232 33 20.6536 33.0702 20.5286 33.1953C20.4036 33.3203 20.3333 33.4899 20.3333 33.6667V36.3333ZM36.3333 20.3333H33.6667C33.4899 20.3333 33.3203 20.4036 33.1953 20.5286C33.0702 20.6536 33 20.8232 33 21C33 21.1768 33.0702 21.3464 33.1953 21.4714C33.3203 21.5964 33.4899 21.6667 33.6667 21.6667H36.3333C36.5101 21.6667 36.6797 21.5964 36.8047 21.4714C36.9298 21.3464 37 21.1768 37 21C37 20.8232 36.9298 20.6536 36.8047 20.5286C36.6797 20.4036 36.5101 20.3333 36.3333 20.3333ZM8.33333 21.6667C8.51014 21.6667 8.67971 21.5964 8.80474 21.4714C8.92976 21.3464 9 21.1768 9 21C9 20.8232 8.92976 20.6536 8.80474 20.5286C8.67971 20.4036 8.51014 20.3333 8.33333 20.3333H5.66667C5.48986 20.3333 5.32029 20.4036 5.19526 20.5286C5.07024 20.6536 5 20.8232 5 21C5 21.1768 5.07024 21.3464 5.19526 21.4714C5.32029 21.5964 5.48986 21.6667 5.66667 21.6667H8.33333ZM29.4853 30.428L31.3707 32.3133C31.4964 32.4348 31.6648 32.502 31.8396 32.5005C32.0144 32.4989 32.1816 32.4288 32.3052 32.3052C32.4288 32.1816 32.4989 32.0144 32.5005 31.8396C32.502 31.6648 32.4348 31.4964 32.3133 31.3707L30.428 29.4853C30.3023 29.3639 30.1339 29.2967 29.9591 29.2982C29.7843 29.2997 29.6171 29.3699 29.4935 29.4935C29.3699 29.6171 29.2997 29.7843 29.2982 29.9591C29.2967 30.1339 29.3639 30.3023 29.4853 30.428ZM11.572 12.5147C11.6335 12.5783 11.7071 12.6291 11.7884 12.6641C11.8697 12.699 11.9572 12.7174 12.0457 12.7182C12.1343 12.7189 12.222 12.7021 12.304 12.6685C12.3859 12.635 12.4603 12.5855 12.5229 12.5229C12.5855 12.4603 12.635 12.3859 12.6685 12.304C12.7021 12.222 12.7189 12.1343 12.7182 12.0457C12.7174 11.9572 12.699 11.8697 12.6641 11.7884C12.6291 11.7071 12.5783 11.6335 12.5147 11.572L10.6293 9.68667C10.5678 9.62299 10.4943 9.57221 10.4129 9.53727C10.3316 9.50233 10.2441 9.48394 10.1556 9.48317C10.0671 9.4824 9.9793 9.49927 9.89736 9.53279C9.81543 9.56631 9.741 9.61581 9.6784 9.6784C9.61581 9.741 9.56631 9.81543 9.53279 9.89736C9.49927 9.9793 9.4824 10.0671 9.48317 10.1556C9.48394 10.2441 9.50233 10.3316 9.53727 10.4129C9.57221 10.4943 9.62299 10.5678 9.68667 10.6293L11.572 12.5147ZM29.956 12.7093C30.0436 12.7095 30.1304 12.6924 30.2114 12.659C30.2924 12.6256 30.366 12.5765 30.428 12.5147L32.3133 10.6293C32.377 10.5678 32.4278 10.4943 32.4627 10.4129C32.4977 10.3316 32.5161 10.2441 32.5168 10.1556C32.5176 10.0671 32.5007 9.9793 32.4672 9.89736C32.4337 9.81543 32.3842 9.741 32.3216 9.6784C32.259 9.61581 32.1846 9.56631 32.1026 9.53279C32.0207 9.49927 31.9329 9.4824 31.8444 9.48317C31.7559 9.48394 31.6684 9.50233 31.5871 9.53727C31.5057 9.57221 31.4322 9.62299 31.3707 9.68667L29.4853 11.572C29.3924 11.6652 29.3291 11.7839 29.3035 11.913C29.2779 12.0421 29.2911 12.176 29.3415 12.2976C29.3918 12.4192 29.477 12.5232 29.5864 12.5965C29.6958 12.6698 29.8244 12.709 29.956 12.7093ZM9.68933 32.3093C9.81435 32.4343 9.98389 32.5045 10.1607 32.5045C10.3374 32.5045 10.507 32.4343 10.632 32.3093L12.5173 30.424C12.581 30.3625 12.6318 30.2889 12.6667 30.2076C12.7017 30.1263 12.7201 30.0388 12.7208 29.9503C12.7216 29.8617 12.7047 29.774 12.6712 29.692C12.6377 29.6101 12.5882 29.5357 12.5256 29.4731C12.463 29.4105 12.3886 29.361 12.3066 29.3275C12.2247 29.2939 12.1369 29.2771 12.0484 29.2778C11.9599 29.2786 11.8724 29.297 11.7911 29.3319C11.7097 29.3669 11.6362 29.4177 11.5747 29.4813L9.68667 31.3707C9.56169 31.4957 9.49148 31.6652 9.49148 31.842C9.49148 32.0188 9.56169 32.1883 9.68667 32.3133L9.68933 32.3093Z" fill="#FFFFFF"/>
<path d="M25.0256 8.7855L26.0057 6.26562C26.0707 6.09855 26.1994 5.96413 26.3635 5.89194C26.5276 5.81974 26.7137 5.8157 26.8807 5.88068C27.0478 5.94567 27.1822 6.07436 27.2544 6.23846C27.3266 6.40255 27.3307 6.5886 27.2657 6.75568L26.2856 9.27556C26.2206 9.44264 26.0919 9.57706 25.9278 9.64925C25.7637 9.72144 25.5777 9.72549 25.4106 9.6605C25.2435 9.59551 25.1091 9.46682 25.0369 9.30273C24.9647 9.13863 24.9606 8.95258 25.0256 8.7855ZM14.7344 35.2442C14.6695 35.4113 14.6735 35.5974 14.7457 35.7614C14.8179 35.9255 14.9523 36.0542 15.1194 36.1192C15.2865 36.1842 15.4725 36.1802 15.6366 36.108C15.8007 36.0358 15.9294 35.9014 15.9944 35.7343L16.9745 33.2144C17.0395 33.0473 17.0354 32.8613 16.9632 32.6972C16.891 32.5331 16.7566 32.4044 16.5895 32.3394C16.4225 32.2744 16.2364 32.2785 16.0723 32.3507C15.9082 32.4228 15.7795 32.5573 15.7146 32.7243L14.7344 35.2442ZM35.7344 26.0056L33.2145 25.0255C33.0474 24.9605 32.8614 24.9646 32.6973 25.0368C32.5332 25.109 32.4045 25.2434 32.3395 25.4105C32.2745 25.5775 32.2786 25.7636 32.3508 25.9277C32.423 26.0918 32.5574 26.2205 32.7245 26.2855L35.2443 27.2656C35.4114 27.3306 35.5975 27.3265 35.7616 27.2543C35.9257 27.1821 36.0543 27.0477 36.1193 26.8806C36.1843 26.7136 36.1803 26.5275 36.1081 26.3634C36.0359 26.1993 35.9015 26.0706 35.7344 26.0056ZM8.78561 16.9744C8.95269 17.0394 9.13874 17.0353 9.30283 16.9631C9.46693 16.8909 9.59562 16.7565 9.66061 16.5894C9.7256 16.4224 9.72155 16.2363 9.64936 16.0722C9.57717 15.9081 9.44275 15.7794 9.27567 15.7144L6.75579 14.7343C6.58871 14.6693 6.40266 14.6734 6.23857 14.7456C6.07447 14.8178 5.94578 14.9522 5.88079 15.1193C5.81581 15.2863 5.81985 15.4724 5.89204 15.6365C5.96423 15.8006 6.09865 15.9293 6.26573 15.9943L8.78561 16.9744ZM25.5531 33.0277L26.6417 35.5022C26.7159 35.6632 26.8503 35.7886 27.0161 35.8514C27.1818 35.9142 27.3656 35.9094 27.5278 35.838C27.6901 35.7666 27.8178 35.6344 27.8834 35.4698C27.9491 35.3052 27.9475 35.1213 27.879 34.9579L26.7904 32.4834C26.7162 32.3224 26.5818 32.197 26.416 32.1342C26.2503 32.0714 26.0665 32.0762 25.9043 32.1476C25.7421 32.219 25.6143 32.3512 25.5487 32.5158C25.483 32.6804 25.4846 32.8643 25.5531 33.0277ZM15.2098 9.51651C15.2445 9.59928 15.2953 9.67431 15.3593 9.73722C15.4233 9.80013 15.4993 9.84966 15.5826 9.88292C15.666 9.91618 15.7551 9.93251 15.8449 9.93095C15.9346 9.92939 16.0231 9.90997 16.1053 9.87382C16.1875 9.83768 16.2616 9.78554 16.3234 9.72044C16.3852 9.65534 16.4334 9.57858 16.4652 9.49465C16.497 9.41072 16.5118 9.3213 16.5086 9.2316C16.5055 9.1419 16.4846 9.05372 16.447 8.9722L15.3584 6.49771C15.3237 6.41494 15.2728 6.33991 15.2088 6.27699C15.1448 6.21408 15.0689 6.16455 14.9855 6.13129C14.9022 6.09803 14.813 6.0817 14.7233 6.08327C14.6335 6.08483 14.545 6.10425 14.4628 6.14039C14.3807 6.17653 14.3065 6.22868 14.2448 6.29378C14.183 6.35888 14.1348 6.43563 14.103 6.51956C14.0712 6.60349 14.0564 6.69292 14.0595 6.78262C14.0626 6.87232 14.0836 6.9605 14.1211 7.04201L15.2098 9.51651ZM32.5102 16.4574C32.593 16.4897 32.6813 16.5054 32.7701 16.5036C32.8589 16.5018 32.9465 16.4826 33.0278 16.4469L35.5023 15.3583C35.5851 15.3236 35.6601 15.2727 35.723 15.2087C35.7859 15.1447 35.8355 15.0688 35.8687 14.9854C35.902 14.9021 35.9183 14.8129 35.9167 14.7232C35.9152 14.6334 35.8958 14.5449 35.8596 14.4627C35.8235 14.3806 35.7713 14.3064 35.7062 14.2447C35.6411 14.1829 35.5644 14.1347 35.4805 14.1029C35.3965 14.071 35.3071 14.0563 35.2174 14.0594C35.1277 14.0625 35.0395 14.0835 34.958 14.121L32.4835 15.2096C32.3614 15.2636 32.258 15.3525 32.1864 15.4651C32.1147 15.5777 32.078 15.709 32.0809 15.8424C32.0837 15.9759 32.126 16.1055 32.2025 16.2149C32.2789 16.3243 32.386 16.4087 32.5102 16.4574ZM6.15534 27.5296C6.22754 27.6937 6.36194 27.8223 6.52898 27.8873C6.69603 27.9523 6.88204 27.9482 7.04611 27.8761L9.52061 26.7875C9.60338 26.7528 9.67841 26.7019 9.74132 26.6379C9.80423 26.5739 9.85376 26.498 9.88702 26.4146C9.92028 26.3312 9.93661 26.2421 9.93505 26.1523C9.93348 26.0626 9.91407 25.9741 9.87792 25.8919C9.84178 25.8098 9.78964 25.7356 9.72454 25.6738C9.65944 25.612 9.58268 25.5638 9.49875 25.532C9.41482 25.5002 9.3254 25.4855 9.2357 25.4886C9.146 25.4917 9.05782 25.5126 8.9763 25.5502L6.49782 26.6416C6.33376 26.7138 6.20511 26.8482 6.14013 27.0153C6.07516 27.1823 6.07919 27.3683 6.15134 27.5324L6.15534 27.5296Z" fill="#FFFFFF"/>
</svg>
