<svg width="66" height="66" viewBox="0 0 66 66" fill="none" xmlns="http://www.w3.org/2000/svg">
<g clip-path="url(#clip0_4130_802)">
<path d="M64.7666 64.6122H62.2848V25.9593L64.0116 23.0611C64.0525 22.9921 64.1071 22.8319 64.1076 22.7125C64.1084 22.5394 64.1087 20.4378 64.1083 20.5083C64.1083 19.5953 63.3654 18.8523 62.452 18.8523H62.2849V8.02286H63.209C63.5889 8.02286 63.8962 7.71516 63.8962 7.33566C63.8962 6.95616 63.5888 6.64846 63.209 6.64846H62.7901C63.2813 4.32853 61.3962 2.80164 59.2916 1.72952V0.698918C59.2916 0.319418 58.9841 0.0117188 58.6044 0.0117188C58.2245 0.0117188 57.9172 0.319418 57.9172 0.698918V1.72965C55.7985 2.80757 53.9235 4.33627 54.4158 6.64859H53.9991C53.6192 6.64859 53.3119 6.95629 53.3119 7.33579C53.3119 7.71529 53.6193 8.02298 53.9991 8.02298H54.9238V18.8524H54.7541C53.8413 18.8524 53.0984 19.5953 53.0984 20.5085C53.0984 20.5501 53.0983 20.1583 53.099 22.7126C53.0996 22.8312 53.154 22.992 53.1951 23.0612L54.924 25.9627V33.7759H52.0187V31.3755C52.0187 29.3192 50.3463 27.646 48.2898 27.646H46.9849C47.7056 25.8653 48.0748 23.9784 48.0748 22.0192C48.0748 14.3916 36.0999 8.32862 33.6938 7.18729V4.06969C33.6938 3.69019 33.3863 3.38249 33.0066 3.38249C32.6267 3.38249 32.3194 3.69019 32.3194 4.06969V7.18729C29.9102 8.32862 17.9256 14.3913 17.9256 22.0192C17.9256 23.9836 18.2971 25.8704 19.0227 27.646H17.7114C15.6551 27.646 13.9819 29.3191 13.9819 31.3755V33.7759H11.0787V25.9582L12.8049 23.0612C12.8405 23.0011 12.9004 22.8332 12.9009 22.7126C12.9009 22.7115 12.9016 22.7106 12.9016 22.7095V20.5086C12.9016 19.5955 12.1587 18.8525 11.2459 18.8525H11.0788V8.02311H12.003C12.3828 8.02311 12.6902 7.71541 12.6902 7.33591C12.6902 6.95641 12.3827 6.64872 12.003 6.64872H11.5838C12.0735 4.3284 10.1913 2.80267 8.08498 1.72978V0.698918C8.08498 0.319418 7.77754 0.0117188 7.39778 0.0117188C7.01802 0.0117188 6.71058 0.319418 6.71058 0.698918V1.72965C4.59123 2.80808 2.71836 4.33614 3.20975 6.64846H2.79325C2.41336 6.64846 2.10605 6.95616 2.10605 7.33566C2.10605 7.71516 2.41349 8.02286 2.79325 8.02286H3.71738V18.8523H3.54825C2.63482 18.8523 1.89194 19.5952 1.89194 20.5083V22.7093C1.89194 22.7104 1.89258 22.7113 1.89258 22.7124C1.8931 22.831 1.9475 22.9917 1.98862 23.0609L3.71751 25.9625V64.6122H1.2331C0.853211 64.6122 0.545898 64.9199 0.545898 65.2994C0.545898 65.6789 0.85334 65.9866 1.2331 65.9866H64.7665C65.1464 65.9866 65.4537 65.6789 65.4537 65.2994C65.4537 64.9199 65.1464 64.6122 64.7666 64.6122ZM56.2982 8.02298H60.9102V18.852H56.2982V8.02298ZM58.6042 2.92204C60.4588 3.86202 61.9064 4.99459 61.3733 6.64846H55.8331C55.2741 4.93078 56.7677 3.85158 58.6042 2.92204ZM5.09152 8.02298H9.70417V18.852H5.09152V8.02298ZM7.39752 2.92204C9.25712 3.86382 10.6989 4.99704 10.1666 6.64846H4.62707C4.06736 4.93091 5.561 3.85158 7.39752 2.92204ZM61.2048 25.0859H56.0015L54.9947 23.3967H62.2114L61.2048 25.0859ZM54.4727 20.5085C54.4727 20.3531 54.5989 20.2269 54.7538 20.2269H62.4517C62.6074 20.2269 62.7336 20.3531 62.7336 20.5085V22.0222H54.4727V20.5085ZM19.3001 22.0191C19.3001 15.1984 31.0281 9.32597 33.0066 8.38405C34.9844 9.32571 46.7004 15.193 46.7004 22.0191C46.7004 23.9896 46.295 25.8801 45.495 27.6459H20.5154C19.7087 25.8869 19.3001 23.996 19.3001 22.0191ZM13.9819 35.1501V64.6122H11.0787V35.1501H13.9819ZM9.99808 25.0859H4.79491L3.78815 23.3967H11.0048L9.99808 25.0859ZM3.26595 20.5085C3.26595 20.3531 3.39215 20.2269 3.54787 20.2269H11.2458C11.4008 20.2269 11.5269 20.3531 11.5269 20.5085V22.0222H3.26595V20.5085ZM5.09152 26.463H9.70417C9.70366 35.2261 9.70275 52.773 9.70211 64.6122H5.09152V26.463ZM25.2187 64.6122V46.4309C25.2187 43.1011 30.5897 39.8608 33.0005 38.7192C35.4112 39.8587 40.7817 43.0959 40.7817 46.4309V64.6122H25.2187ZM42.1561 64.6122V46.4309C42.1561 41.3668 33.6435 37.4974 33.281 37.3354C33.1025 37.2554 32.8984 37.2554 32.7199 37.3354C32.3575 37.4974 23.8442 41.3665 23.8442 46.4309V64.6122H15.3565C15.3565 55.021 15.3565 42.2237 15.3565 31.3754C15.3565 30.0768 16.4128 29.0204 17.7114 29.0204H48.2896C49.5875 29.0204 50.6439 30.0768 50.6439 31.3754V64.6122H42.1561ZM52.0184 64.6122V35.1501H54.9231V64.6122H52.0184ZM56.2982 64.6122V26.463H60.9102V64.6122H56.2982Z" fill="white"/>
</g>
<defs>
<clipPath id="clip0_4130_802">
<rect width="66" height="66" fill="white"/>
</clipPath>
</defs>
</svg>
