<svg width="27" height="27" viewBox="0 0 27 27" fill="none" xmlns="http://www.w3.org/2000/svg">
<path d="M10.0217 22.9443C9.99607 22.9443 9.97051 22.942 9.94531 22.9375C9.89081 22.9275 9.8388 22.9069 9.79226 22.8769C9.74572 22.8468 9.70555 22.8079 9.67406 22.7623C9.64256 22.7167 9.62035 22.6654 9.60869 22.6112C9.59704 22.557 9.59617 22.5011 9.60613 22.4466C10.4365 17.8992 8.61472 15.2364 8.59647 15.21C8.54804 15.1409 8.52142 15.0589 8.52004 14.9746C8.51867 14.8903 8.54261 14.8074 8.58877 14.7369C8.85888 14.3236 9.05463 13.1256 9.06444 11.8235C9.07688 10.213 8.81406 9.43705 8.69224 9.33031C8.54048 9.22664 8.36545 9.16208 8.18272 9.14235C7.99999 9.12263 7.81522 9.14836 7.64483 9.21725C7.51503 9.26825 7.40139 9.35329 7.31584 9.46343C7.2303 9.57357 7.17602 9.70472 7.15872 9.8431C7.07667 10.377 6.82259 11.1335 6.52823 12.0094C6.2036 12.9758 5.83562 14.0713 5.66233 15.0033C5.46483 16.1255 5.37001 17.2633 5.37904 18.4027C5.38164 18.5099 5.34333 18.6141 5.27189 18.694L3.61888 20.5443C3.58197 20.5856 3.53729 20.6192 3.48738 20.6433C3.43747 20.6674 3.38332 20.6813 3.328 20.6845C3.27269 20.6876 3.2173 20.6798 3.165 20.6615C3.1127 20.6432 3.06451 20.6148 3.02319 20.5779C2.98187 20.541 2.94822 20.4963 2.92416 20.4464C2.90011 20.3965 2.88612 20.3424 2.883 20.287C2.87987 20.2317 2.88767 20.1763 2.90595 20.124C2.92424 20.0717 2.95264 20.0236 2.98954 19.9822L4.53308 18.254C4.5328 17.1124 4.63306 15.973 4.83272 14.849C5.01697 13.8587 5.39497 12.7335 5.72846 11.7408C5.99857 10.9366 6.2537 10.1771 6.32489 9.71475C6.36449 9.43361 6.47721 9.16779 6.65179 8.94389C6.82636 8.71999 7.05667 8.54585 7.31967 8.43889C7.62386 8.31451 7.95443 8.26855 8.28102 8.30522C8.60761 8.34189 8.91975 8.46003 9.18879 8.64878C10.187 9.36976 10.0526 13.5067 9.42693 14.9478C9.87781 15.7159 11.2 18.4153 10.4361 22.5988C10.4182 22.6957 10.367 22.7834 10.2913 22.8465C10.2156 22.9096 10.1202 22.9442 10.0217 22.9443Z" fill="rgb(21, 93, 116)"/>
<path d="M9.30157 26.7355C9.21883 26.7355 9.13793 26.7111 9.06893 26.6655C8.99993 26.6198 8.94589 26.5549 8.91352 26.4787C8.88114 26.4026 8.87187 26.3186 8.88686 26.2372C8.90185 26.1559 8.94044 26.0807 8.99782 26.0211L10.4367 24.5267C10.4852 24.4763 10.5455 24.4387 10.6121 24.4174C10.6787 24.3961 10.7496 24.3917 10.8183 24.4047C10.834 24.4076 12.4742 24.6983 13.8727 23.9993C15.3294 23.2709 16.074 22.7357 16.3663 21.6643C16.3966 21.5574 16.4678 21.4667 16.5646 21.412C16.6613 21.3574 16.7757 21.343 16.8829 21.3722C16.9902 21.4014 17.0815 21.4717 17.1372 21.5678C17.1929 21.664 17.2084 21.7782 17.1804 21.8858C16.808 23.251 15.8632 23.9468 14.2501 24.7534C12.9143 25.4213 11.4521 25.334 10.8945 25.2672L9.60542 26.6063C9.56611 26.6473 9.51893 26.6798 9.46671 26.702C9.41449 26.7242 9.35831 26.7356 9.30157 26.7355Z" fill="rgb(21, 93, 116)"/>
<path d="M21.0369 18.2472C20.9275 18.2472 20.8222 18.2048 20.7435 18.1287C20.6648 18.0527 20.6187 17.949 20.615 17.8396C20.6113 17.7302 20.6502 17.6236 20.7236 17.5424C20.797 17.4612 20.8991 17.4117 21.0083 17.4044L22.1702 17.3245C22.3763 17.306 22.5668 17.2068 22.7001 17.0485C22.8334 16.8902 22.8987 16.6857 22.8818 16.4794C22.8649 16.2732 22.7672 16.0819 22.6099 15.9474C22.4527 15.8129 22.2486 15.746 22.0422 15.7613L21.3048 15.8196C21.2494 15.8242 21.1937 15.8179 21.1408 15.8009C21.0879 15.7839 21.0389 15.7567 20.9966 15.7207C20.9542 15.6847 20.9194 15.6407 20.8941 15.5913C20.8688 15.5418 20.8535 15.4878 20.8491 15.4325C20.8448 15.3771 20.8514 15.3214 20.8686 15.2685C20.8858 15.2157 20.9132 15.1668 20.9494 15.1246C20.9855 15.0825 21.0297 15.0478 21.0792 15.0227C21.1288 14.9977 21.1829 14.9826 21.2383 14.9785L21.9757 14.9202C22.4042 14.8895 22.8275 15.0296 23.1532 15.3097C23.479 15.5898 23.6808 15.9874 23.7146 16.4157C23.7485 16.844 23.6117 17.2683 23.3341 17.5961C23.0564 17.924 22.6604 18.1288 22.2324 18.166L21.0662 18.2461C21.0564 18.2469 21.0466 18.2472 21.0369 18.2472Z" fill="rgb(21, 93, 116)"/>
<path d="M21.0368 15.8201C20.9273 15.8196 20.8224 15.7767 20.744 15.7003C20.6657 15.6239 20.6201 15.52 20.6169 15.4106C20.6137 15.3013 20.6531 15.1949 20.7268 15.114C20.8005 15.0332 20.9028 14.9841 21.012 14.9772L21.9837 14.9189C22.1897 14.8999 22.3799 14.8002 22.5128 14.6416C22.6457 14.483 22.7105 14.2783 22.6931 14.0721C22.6758 13.8659 22.5776 13.6749 22.42 13.5407C22.2625 13.4066 22.0583 13.3402 21.8519 13.3559L21.1145 13.4143C21.0029 13.4231 20.8924 13.3872 20.8073 13.3146C20.7222 13.242 20.6694 13.1385 20.6606 13.0269C20.6518 12.9154 20.6876 12.8049 20.7603 12.7198C20.8329 12.6347 20.9364 12.5819 21.0479 12.5731L21.7855 12.5148C22.2159 12.4808 22.6422 12.6191 22.9706 12.8994C23.299 13.1797 23.5026 13.579 23.5366 14.0094C23.5707 14.4398 23.4323 14.8661 23.152 15.1945C22.8717 15.5229 22.4725 15.7265 22.0421 15.7605L21.0621 15.8195C21.0538 15.8195 21.0453 15.8201 21.0368 15.8201Z" fill="rgb(21, 93, 116)"/>
<path d="M21.0809 13.4159C20.9719 13.416 20.867 13.3738 20.7884 13.2982C20.7097 13.2226 20.6634 13.1195 20.6591 13.0105C20.6549 12.9015 20.693 12.7951 20.7655 12.7136C20.838 12.6321 20.9393 12.5819 21.048 12.5734L21.7856 12.5152C21.8882 12.5071 21.9883 12.4789 22.08 12.4321C22.1718 12.3853 22.2534 12.3209 22.3203 12.2426C22.3871 12.1643 22.4379 12.0735 22.4697 11.9756C22.5015 11.8776 22.5137 11.7744 22.5056 11.6717C22.4975 11.5691 22.4692 11.469 22.4224 11.3773C22.3757 11.2855 22.3113 11.2039 22.2329 11.1371C22.1546 11.0702 22.0639 11.0194 21.9659 10.9876C21.868 10.9558 21.7647 10.9436 21.6621 10.9518L21.0705 10.9985C20.9592 11.0068 20.8492 10.9707 20.7645 10.8981C20.6798 10.8255 20.6273 10.7223 20.6185 10.611C20.6097 10.4998 20.6453 10.3896 20.7176 10.3046C20.7898 10.2196 20.8928 10.1666 21.004 10.1574L21.5955 10.1105C22.026 10.0765 22.4523 10.2149 22.7807 10.4952C23.1091 10.7755 23.3127 11.1748 23.3467 11.6052C23.3807 12.0356 23.2423 12.4619 22.962 12.7903C22.6817 13.1187 22.2824 13.3223 21.852 13.3563L21.1146 13.4147C21.1033 13.4152 21.092 13.4159 21.0809 13.4159Z" fill="rgb(21, 93, 116)"/>
<path d="M21.0373 10.0615C20.9484 10.0616 20.8616 10.0336 20.7896 9.98146C20.7175 9.92931 20.6637 9.85572 20.636 9.77119C20.6082 9.68666 20.6079 9.59552 20.6351 9.51081C20.6623 9.42609 20.7155 9.35214 20.7873 9.29951L22.9904 7.68151C23.1488 7.54975 23.2491 7.36091 23.2694 7.15584C23.2897 6.95077 23.2284 6.74594 23.0989 6.58567C22.9694 6.42539 22.782 6.32255 22.5772 6.29938C22.3724 6.27621 22.1668 6.33459 22.0047 6.46187L21.3158 7.06853C21.2745 7.10693 21.226 7.13668 21.173 7.15602C21.1201 7.17535 21.0638 7.18387 21.0075 7.18109C20.9512 7.1783 20.896 7.16426 20.8452 7.1398C20.7944 7.11533 20.7491 7.08093 20.7118 7.03864C20.6745 6.99635 20.6461 6.94701 20.6282 6.89355C20.6104 6.8401 20.6034 6.7836 20.6077 6.72739C20.612 6.67119 20.6275 6.61642 20.6534 6.56632C20.6792 6.51622 20.7149 6.47181 20.7581 6.43571L21.4542 5.82241C21.4587 5.81841 21.4633 5.81461 21.468 5.81081C21.8038 5.53948 22.2338 5.4127 22.6631 5.45835C22.8757 5.48095 23.0818 5.54521 23.2696 5.64745C23.4573 5.74969 23.6231 5.88792 23.7575 6.05423C23.8918 6.22055 23.9921 6.4117 24.0526 6.61677C24.113 6.82183 24.1325 7.0368 24.1099 7.24941C24.0873 7.46201 24.0231 7.66807 23.9208 7.85584C23.8186 8.04361 23.6804 8.2094 23.514 8.34375C23.5091 8.34786 23.504 8.35177 23.4989 8.35567L21.2871 9.97989C21.2147 10.0331 21.1272 10.0617 21.0373 10.0615Z" fill="rgb(21, 93, 116)"/>
<path d="M21.0371 18.299C20.9252 18.299 20.8179 18.2545 20.7388 18.1754C20.6596 18.0963 20.6152 17.989 20.6152 17.8771V2.12251C20.6152 1.56352 20.0761 1.10938 19.4135 1.10938H10.5646C9.90188 1.10938 9.3623 1.56384 9.3623 2.12251V8.99074C9.3623 9.10263 9.31786 9.20993 9.23874 9.28905C9.15962 9.36817 9.05232 9.41261 8.94043 9.41261C8.82854 9.41261 8.72124 9.36817 8.64212 9.28905C8.563 9.20993 8.51855 9.10263 8.51855 8.99074V2.12251C8.51855 1.09862 9.43613 0.265625 10.5646 0.265625H19.4135C20.5414 0.265625 21.4589 1.09883 21.4589 2.12251V17.8771C21.4589 17.989 21.4145 18.0963 21.3354 18.1754C21.2563 18.2545 21.149 18.299 21.0371 18.299Z" fill="rgb(21, 93, 116)"/>
<path d="M19.4138 22.1351H10.2939C10.1821 22.1351 10.0748 22.0906 9.99564 22.0115C9.91652 21.9324 9.87207 21.8251 9.87207 21.7132C9.87207 21.6013 9.91652 21.494 9.99564 21.4149C10.0748 21.3358 10.1821 21.2913 10.2939 21.2913H19.4138C20.0765 21.2913 20.6155 20.8366 20.6155 20.2778V17.7383C20.6155 17.6264 20.66 17.5191 20.7391 17.44C20.8182 17.3609 20.9255 17.3164 21.0374 17.3164C21.1493 17.3164 21.2566 17.3609 21.3357 17.44C21.4148 17.5191 21.4593 17.6264 21.4593 17.7383V20.2778C21.4593 21.3019 20.5417 22.1351 19.4138 22.1351Z" fill="rgb(21, 93, 116)"/>
<path d="M20.9703 3.38086H8.97119C8.8593 3.38086 8.752 3.33641 8.67288 3.25729C8.59376 3.17818 8.54932 3.07087 8.54932 2.95898C8.54932 2.8471 8.59376 2.73979 8.67288 2.66067C8.752 2.58156 8.8593 2.53711 8.97119 2.53711H20.9703C21.0822 2.53711 21.1895 2.58156 21.2686 2.66067C21.3477 2.73979 21.3921 2.8471 21.3921 2.95898C21.3921 3.07087 21.3477 3.17818 21.2686 3.25729C21.1895 3.33641 21.0822 3.38086 20.9703 3.38086Z" fill="rgb(21, 93, 116)"/>
<path d="M21.0372 19.7363H10.3872C10.2753 19.7363 10.168 19.6919 10.0889 19.6128C10.0098 19.5336 9.96533 19.4263 9.96533 19.3145C9.96533 19.2026 10.0098 19.0953 10.0889 19.0161C10.168 18.937 10.2753 18.8926 10.3872 18.8926H21.0372C21.1491 18.8926 21.2564 18.937 21.3355 19.0161C21.4147 19.0953 21.4591 19.2026 21.4591 19.3145C21.4591 19.4263 21.4147 19.5336 21.3355 19.6128C21.2564 19.6919 21.1491 19.7363 21.0372 19.7363Z" fill="rgb(21, 93, 116)"/>
</svg>
