<svg width="65" height="65" viewBox="0 0 65 65" fill="none" xmlns="http://www.w3.org/2000/svg">
<g clip-path="url(#clip0_4130_758)">
<path d="M32.0614 0.00585972C19.2373 0.00399052 7.64727 7.64806 2.59978 19.4369L2.20031 19.5694L2.35518 20.034C-4.2906 36.425 3.60928 55.1 20.0002 61.7457C23.8285 63.298 27.9208 64.0948 32.0519 64.0925C49.7489 64.0952 64.0973 49.751 64.1 32.054C64.1027 14.357 49.7585 0.00839648 32.0614 0.00585972ZM57.1957 48.2049L55.5503 46.5605V42.7303C55.5522 42.565 55.5156 42.4016 55.4435 42.2529L51.2779 33.9333V29.913C51.2779 29.556 51.0996 29.2224 50.8026 29.0243L47.5982 26.8881C47.3471 26.7204 47.0367 26.6668 46.7437 26.7407L42.8195 27.7212L36.2282 24.8928L35.3214 18.5397L37.8346 16.0275H43.2296L45.0454 18.7565C45.2094 19.0019 45.4677 19.1687 45.7589 19.2169L52.1676 20.285C52.3393 20.3139 52.5153 20.2998 52.6803 20.2444L58.5827 18.277C63.5332 27.7771 63.0037 39.2034 57.1957 48.2049ZM52.7903 10.531L51.0536 11.6889L46.2118 10.7201L43.0705 9.6744C42.8782 9.60911 42.6713 9.60083 42.4745 9.6509L38.5033 10.6432L36.7622 10.0632L38.0525 7.48264H41.6649C41.8306 7.48277 41.994 7.44445 42.1423 7.37048L45.838 5.52265C48.383 6.85112 50.7243 8.53766 52.7903 10.531ZM20.3529 4.52717L22.9163 6.23615C23.0424 6.32 23.1847 6.37607 23.334 6.40064L28.51 7.26367L28.0048 8.77505L25.3078 9.67547C25.0663 9.75584 24.8613 9.9198 24.73 10.138L21.6624 15.2499L16.7352 18.2065L9.47201 19.2436C8.94556 19.318 8.5541 19.7683 8.55343 20.3V23.5043C8.55343 23.7876 8.66612 24.0592 8.86639 24.2595L10.6897 26.0827V27.9177L6.24631 24.9548L4.63453 20.1195C7.70108 13.1126 13.3216 7.53711 20.3529 4.52717ZM17.3119 39.5473L12.4841 38.5807L10.6897 35.0014V32.4914L14.6694 28.5116L16.1424 31.4585C16.3233 31.8206 16.6935 32.0493 17.0983 32.0492H23.9705L26.8641 36.8717C27.0571 37.1931 27.4045 37.3896 27.7794 37.3897H30.7488L30.0011 41.1356L25.9572 45.1795C25.7566 45.3796 25.6436 45.6512 25.6432 45.9346V48.6049L21.798 51.4888C21.5291 51.6905 21.3708 52.0071 21.3708 52.3433V56.2013L20.042 55.7612L18.1664 51.0701V40.5941C18.1666 40.0865 17.8093 39.6488 17.3119 39.5473ZM14.1012 55.967C4.03038 48.4116 -0.228578 35.3571 3.44893 23.3163L4.33653 25.978C4.4113 26.2033 4.55896 26.3973 4.7563 26.5292L10.0808 30.0785L8.86639 31.294C8.66612 31.4943 8.55343 31.7659 8.55343 32.0492V35.2535C8.5533 35.4192 8.59162 35.5826 8.66558 35.731L10.8018 40.0034C10.9497 40.2985 11.2257 40.5086 11.5495 40.5727L16.0355 41.4689V51.2752C16.0354 51.4108 16.0612 51.5454 16.1114 51.6715L18.2476 57.012C18.3646 57.3037 18.6041 57.5292 18.9024 57.6283L22.1067 58.6964C22.2138 58.7327 22.3259 58.7514 22.4389 58.752C23.0287 58.752 23.507 58.2737 23.507 57.6838V52.8773L27.3522 49.9935C27.6211 49.7917 27.7794 49.4752 27.7794 49.139V46.3768L31.7389 42.4173C31.8878 42.2682 31.9893 42.0782 32.0305 41.8715L33.0986 36.531C33.2142 35.9525 32.8391 35.3898 32.2606 35.2742C32.1918 35.2605 32.122 35.2535 32.0519 35.2535H28.384L25.4905 30.431C25.2974 30.1096 24.95 29.9131 24.5751 29.913H17.7584L15.9234 26.2312C15.7697 25.9238 15.4776 25.7091 15.1383 25.6544C14.7992 25.5958 14.453 25.7077 14.2123 25.9535L12.8259 27.3345V25.6405C12.8259 25.3572 12.7132 25.0856 12.5129 24.8854L10.6897 23.0621V21.226L17.25 20.2893C17.3908 20.2689 17.5264 20.2205 17.6484 20.1472L22.989 16.9429C23.1388 16.8529 23.2643 16.7274 23.3542 16.5776L26.3556 11.5756L29.1851 10.6314C29.5046 10.5266 29.7553 10.276 29.8601 9.95638L30.9282 6.75205C31.1133 6.19196 30.8093 5.58781 30.2492 5.40276C30.1975 5.38567 30.1445 5.37258 30.0908 5.3635L23.9086 4.33278L22.8223 3.6086C29.5438 1.42084 36.8238 1.69161 43.3642 4.3723L41.4128 5.34641H37.3924C36.9856 5.34414 36.613 5.57325 36.4311 5.93708L34.2949 10.2095C34.0317 10.7374 34.2463 11.3788 34.7742 11.642C34.8192 11.6644 34.8657 11.6837 34.9133 11.6995L38.1177 12.7676C38.3099 12.8329 38.5169 12.8412 38.7137 12.7911L42.6849 11.7989L45.5944 12.7676C45.6361 12.7826 45.679 12.7941 45.7226 12.8018L51.0632 13.8699C51.3409 13.9265 51.6298 13.8697 51.8653 13.7119L54.2963 12.0905C55.4928 13.4231 56.568 14.8597 57.5092 16.3832L52.2541 18.1349L46.5643 17.1864L44.6844 14.3666C44.4874 14.0711 44.1562 13.893 43.8011 13.8913H37.3924C37.1091 13.8913 36.8375 14.004 36.6373 14.2043L33.4329 17.4086C33.195 17.6464 33.083 17.9824 33.1307 18.3154L34.1988 25.7922C34.2526 26.1619 34.4956 26.4766 34.8396 26.6221L42.3164 29.8264C42.5306 29.9192 42.7696 29.9383 42.9957 29.8809L46.81 28.9271L49.1416 30.4844V34.1854C49.1398 34.3507 49.1764 34.5141 49.2485 34.6629L53.4141 42.9824V47.0027C53.4141 47.2861 53.5268 47.5576 53.727 47.7579L55.9615 49.9935C46.0517 63.2024 27.3101 65.8769 14.1012 55.967Z" fill="white"/>
</g>
<defs>
<clipPath id="clip0_4130_758">
<rect width="64.1" height="64.1" fill="white"/>
</clipPath>
</defs>
</svg>
