<svg width="389" height="389" viewBox="0 0 389 389" fill="none" xmlns="http://www.w3.org/2000/svg">
<g clip-path="url(#clip0_2115_561)">
<path d="M194.41 386.32C300.399 386.32 386.32 300.399 386.32 194.41C386.32 88.421 300.399 2.5 194.41 2.5C88.421 2.5 2.5 88.421 2.5 194.41C2.5 300.399 88.421 386.32 194.41 386.32Z" stroke="#093C54" stroke-width="5" stroke-miterlimit="10"/>
<path d="M123.061 344.02C122.821 343.9 122.821 343.67 123.061 343.19L127.671 333.74C127.911 333.15 128.261 332.91 128.621 332.91C129.091 332.91 131.101 334.09 134.761 336.57C138.421 339.17 140.201 340.59 140.201 341.06C140.201 342.6 138.661 346.02 135.361 351.22C135.011 351.93 134.651 352.05 134.181 351.81C130.641 348.97 126.851 346.49 123.071 344.01" fill="#093C54"/>
<path d="M99.3594 197.45C99.3594 197.45 99.6494 199.58 100.579 202.67C100.169 200.88 99.7494 199.14 99.3594 197.45Z" fill="#093C54"/>
<path d="M187.55 260.94C191.33 263.3 195.11 265.9 198.66 268.74C199.13 268.98 199.49 268.86 199.84 268.15C201.26 266.02 202.56 263.42 203.86 260.47C207.88 263.07 211.42 265.55 214.61 267.8C215.08 268.15 215.44 267.92 215.79 267.33C219.1 262.13 220.63 258.7 220.63 257.17C220.63 256.7 218.86 255.28 215.19 252.68C211.53 250.2 209.4 249.02 208.93 249.02C208.69 249.02 208.34 249.26 207.98 249.85L204.32 257.41C203.37 256.46 201.37 254.93 198.29 252.92C195.22 250.79 193.45 249.73 193.09 249.73C192.73 249.73 192.38 250.08 192.14 250.68L187.53 260.13C187.29 260.48 187.29 260.84 187.53 260.96L187.55 260.94Z" fill="#093C54"/>
<path d="M33.2703 211.65C37.0503 214.01 40.8303 216.61 44.3803 219.45C44.8503 219.69 45.2103 219.57 45.5603 218.86C46.9803 216.73 48.2803 214.13 49.5803 211.18C53.6003 213.78 57.1403 216.26 60.3303 218.51C60.8003 218.86 61.1603 218.63 61.5103 218.04C64.8203 212.84 66.3503 209.41 66.3503 207.88C66.3503 207.41 64.5803 205.99 60.9103 203.39C57.2503 200.91 55.1203 199.73 54.6503 199.73C54.4103 199.73 54.0603 199.97 53.7003 200.56L50.0403 208.12C49.0903 207.17 47.0903 205.64 44.0103 203.63C40.9403 201.5 39.1703 200.44 38.8103 200.44C38.4503 200.44 38.1003 200.79 37.8603 201.39L33.2503 210.84C33.0103 211.19 33.0103 211.55 33.2503 211.67L33.2703 211.65Z" fill="#093C54"/>
<path d="M49.8992 81.0499C53.6792 83.4099 57.4592 86.0099 61.0092 88.8499C61.4792 89.0899 61.8392 88.9699 62.1892 88.2599C63.6092 86.1299 64.9092 83.5299 66.2092 80.5799C70.2292 83.1799 73.7692 85.6599 76.9592 87.9099C77.4292 88.2599 77.7892 88.0299 78.1392 87.4399C81.4492 82.2399 82.9792 78.8099 82.9792 77.2799C82.9792 76.8099 81.2092 75.3899 77.5392 72.7899C73.8792 70.3099 71.7492 69.1299 71.2792 69.1299C71.0392 69.1299 70.6892 69.3699 70.3292 69.9599L66.6692 77.5199C65.7192 76.5699 63.7192 75.0399 60.6392 73.0299C57.5692 70.8999 55.7992 69.8399 55.4392 69.8399C55.0792 69.8399 54.7292 70.1899 54.4892 70.7899L49.8792 80.2399C49.6392 80.5899 49.6392 80.9499 49.8792 81.0699L49.8992 81.0499Z" fill="#093C54"/>
<path d="M309.581 127.33C306.561 135.17 302.731 142.95 297.861 149.77C297.511 150.26 297.151 150.76 296.781 151.26C295.761 152.64 294.731 154.01 293.681 155.37C290.921 158.93 288.041 162.4 285.111 165.84C284.081 167.08 283.031 168.31 281.971 169.53C279.401 172.57 276.801 175.6 274.251 178.66C273.451 179.61 272.371 180.31 271.421 181.13C270.981 180.97 270.531 180.79 270.071 180.62C270.671 178.68 270.801 176.41 271.921 174.85C274.971 170.65 278.061 166.48 281.181 162.32C282.201 160.94 283.231 159.57 284.271 158.19C287.091 154.42 289.921 150.67 292.761 146.91C293.151 146.41 293.521 145.89 293.911 145.39C294.541 144.56 295.201 143.75 295.861 142.96C297.721 140.74 299.661 138.57 301.181 136.14C304.501 130.85 302.531 126.11 296.381 126.16C295.601 126.16 294.811 126.18 294.021 126.22C292.851 126.27 291.681 126.34 290.511 126.44C287.291 126.73 284.061 127.21 280.891 127.87C279.731 128.09 278.581 128.35 277.441 128.63C276.681 128.82 275.921 129 275.171 129.2C234.011 140.12 194.671 155.7 157.521 176.66C156.701 177.12 155.951 177.74 154.621 178.67C164.341 185.35 173.731 191.75 183.081 198.2C190.481 203.3 197.851 208.44 205.241 213.54C202.361 216.64 201.761 217.19 201.711 217.24C197.811 220.43 193.861 222.58 189.731 223.71C178.341 214.76 166.761 205.67 154.871 196.33C152.541 194.5 150.521 192.22 148.721 190C149.361 184.54 149.691 179.02 150.371 173.56C151.011 168.18 154.501 164.99 159.061 162.48C182.791 149.4 207.341 138.25 233.281 130.29C247.581 125.9 261.841 121.37 276.141 117C277.281 116.66 278.421 116.31 279.561 115.97C282.271 115.14 285.001 114.32 287.721 113.51C288.151 113.38 288.601 113.26 289.051 113.17C290.181 112.9 291.341 112.74 292.531 112.62C294.651 112.42 296.811 112.42 298.921 112.46C307.941 112.66 312.831 118.93 309.591 127.36L309.581 127.33Z" fill="#093C54"/>
<path d="M239.411 236.78C236.551 238.75 233.341 239.81 229.771 239.96C220.421 240.38 214.621 235.09 212.371 224.08C212.221 223.17 212.041 222.71 211.871 222.71C211.711 222.83 211.381 223.31 210.891 224.15C208.991 227.38 206.311 230.67 202.851 233.98C199.601 231.42 196.331 228.85 193.061 226.29C196.801 224.92 200.441 222.8 203.941 219.92C204.341 219.59 205.741 218.14 208.181 215.53C213.691 219.34 219.231 223.14 224.771 226.9L225.851 227.58C230.471 230.48 235.001 233.55 239.421 236.77L239.411 236.78Z" fill="#093C54"/>
<path d="M362.65 265.22C380.49 194.27 353.17 159.52 338.8 146.81C334.42 142.94 331.25 141.1 330.93 140.92C330.91 140.91 330.89 140.91 330.89 140.91C332.46 152.27 333.92 162.76 335.36 173.24C339.76 205.38 344.31 237.49 348.43 269.68C349.17 275.41 348.66 281.51 347.67 287.25C347.67 287.25 347.63 287.45 347.55 287.82C347.32 288.93 346.67 291.54 345.3 294.61C345.3 294.63 345.29 294.65 345.28 294.66C341.54 303.01 332.23 315.03 311.36 309.31C311.15 309.16 310.93 309.05 310.73 308.97C302.35 305.81 295.47 300.46 288.9 294.45C277.9 284.4 266.66 274.61 255.49 264.72C254.79 264.1 253.92 263.68 252.54 263.58C254.1 266.31 256.13 268.87 257.13 271.78C259.11 277.6 261.06 283.52 262.06 289.55C262.07 289.59 262.07 289.62 262.08 289.66C263.03 295.52 261.24 301.49 257.45 306.06C257.06 306.53 256.65 307 256.22 307.45C251.43 312.63 246.52 315.34 241.61 315.34C237.87 315.34 234.51 314.18 231.41 311.86C229.75 310.62 228.3 309.13 227.06 307.4C225.69 305.47 224.6 303.25 223.78 300.73C221.59 304.9 219.3 308.35 216.95 311.05C212.67 315.96 208.61 318.15 203.49 318.45C201.95 318.53 200.39 318.59 199.03 318.38C192.88 317.42 188.74 314.03 186.42 308.63C184.99 305.39 184.22 301.25 184.22 296.46C184.22 296.07 183.96 295.95 183.71 296.07C164.37 305.16 146.61 311.97 130.42 316.51C128.62 317.01 126.82 317.5 125.05 317.95C110.89 321.55 97.9999 323.36 86.3499 323.36C69.9499 323.36 58.0499 318.96 50.7999 310.3C45.6299 304.22 43.1699 296.6 43.1699 287.28C43.1699 277.46 45.4999 268.28 50.1599 259.88C51.6999 257.17 52.7499 255.74 53.2599 255.74C53.3899 255.74 53.5199 256 53.5199 256.4C53.5199 257.3 53.1299 258.86 52.3599 261.05C51.1899 264.02 50.0299 267.12 48.8699 270.11C47.6999 273.98 47.0599 278.13 47.0599 282.52C47.0599 288.2 49.7699 293.24 55.3299 297.64C63.3499 304.23 75.8899 307.6 92.9499 307.6C104.14 307.6 116.73 305.83 130.66 302.3C130.84 302.26 131 302.23 131.16 302.17C142.98 299.16 155.76 294.88 169.5 289.32C171.77 288.42 174.06 287.47 176.38 286.48C179.46 285.18 182.59 283.81 185.76 282.38C187.83 281.48 189.25 280.96 189.89 280.96C190.53 280.96 190.93 281.47 190.93 282.25C190.93 282.78 190.8 283.42 190.67 284.19C190.27 286.26 190.14 288.06 190.14 289.75C190.14 298.28 194.54 302.68 203.47 302.55C209.54 302.68 214.82 300.28 218.83 294.85C221.42 290.85 223.76 286.65 226.34 282.77C227.11 281.86 227.9 281.47 228.53 281.47C229.16 281.47 229.57 281.86 229.57 282.51C229.57 282.9 229.44 283.41 229.18 283.93C228.67 285.49 228.27 286.9 228.27 288.19C228.27 291.69 229.83 294.4 232.94 296.6C235.65 298.54 238.49 299.57 241.59 299.57C248.19 299.69 253.86 296.93 258.6 291.6C257.36 289.21 256.33 287.49 256.01 286.98C255.96 286.9 255.93 286.84 255.93 286.82H255.92C246.89 271.06 233.99 258.76 218.83 246.35L209.53 239.25C208.23 238.22 206.92 237.2 205.61 236.17C207.49 234.34 209.17 232.51 210.62 230.68C214.69 241.11 222.47 243.49 228.73 243.49C229.12 243.49 229.5 243.48 229.9 243.47C234.59 243.27 238.75 241.76 242.36 238.98C245.79 241.53 249.13 244.19 252.42 246.92C270.18 261.75 287.77 276.42 305.33 291.08C308.59 293.79 312.73 295.28 316.97 295.21C317.95 295.21 319.05 295.15 320.28 295.08H321.03C328.18 294.99 333.99 292.87 339.06 288.74C340.14 287.85 341.59 286.47 341.56 285.35C341.55 284.93 341.52 284.47 341.5 284C341.5 283.91 341.49 283.82 341.49 283.72C341.31 278.89 340.69 274.27 339.97 268.73C339.38 264.15 338.85 260.5 338.78 260.04C338.77 260.02 338.77 259.99 338.77 259.99C333.74 223.65 328.57 187.32 323.48 150.98C322.5 144.01 322.94 136.56 320.55 130.14C318.2 123.82 321.24 119.67 323.23 114.45C404.83 166.1 363.95 262.16 362.63 265.21L362.65 265.22Z" fill="#093C54"/>
<path d="M347.559 287.82C347.529 287.97 347.489 288.14 347.439 288.33C347.479 288.16 347.519 287.99 347.559 287.82Z" fill="#093C54"/>
<path d="M345.311 294.61C346.501 291.94 347.151 289.62 347.451 288.33C346.971 290.63 346.251 292.73 345.311 294.61Z" fill="#093C54"/>
<path d="M121.639 239.95V240.01L121.519 240.07C121.269 240.22 121.029 240.37 120.779 240.49C121.339 240.15 121.639 239.95 121.639 239.95Z" fill="#093C54"/>
<path d="M275.85 83.7601L274.92 74.3301C275.27 75.9701 275.5 77.7701 275.61 79.7201C275.69 81.0501 275.77 82.4001 275.86 83.7701L275.85 83.7601Z" fill="#093C54"/>
<path d="M197.039 337.81C200.279 337.81 203.239 339.64 205.779 343.45C208.319 347.25 210.009 352.19 211.129 358.39C211.269 358.95 211.269 359.38 211.269 359.52C211.363 359.613 211.456 359.613 211.549 359.52C211.549 359.38 211.689 358.96 211.969 358.39C212.529 354.73 213.659 349.23 215.769 341.9C217.879 336.69 220.279 334.15 222.819 334.15C224.229 334.15 225.499 335 226.769 336.83C228.039 338.38 228.599 339.65 228.599 340.63C228.599 341.33 228.319 342.32 227.899 343.45C227.479 345.14 226.769 345.99 226.209 345.99C225.929 345.99 225.219 345.29 224.239 344.02C223.249 342.75 222.269 342.19 221.279 342.19C219.029 342.19 216.769 347.54 214.939 358.39C213.949 363.18 213.109 366.56 211.979 368.39C211.279 369.8 210.709 370.5 210.149 370.5C209.729 370.5 209.449 369.8 209.449 368.67C209.449 366.7 208.319 363.03 206.209 357.54C204.099 352.04 202.549 349.37 201.559 349.37C200.999 349.37 200.569 349.51 200.289 349.93C200.149 350.35 199.729 350.63 198.739 350.63C197.889 350.63 196.629 349.93 194.939 348.38C193.389 346.97 192.689 345.84 192.689 345C192.689 344.58 193.249 343.31 194.659 341.05C195.929 338.8 196.769 337.81 197.059 337.81H197.039Z" fill="#093C54"/>
<path d="M188.379 81.64C191.619 81.64 194.579 83.47 197.119 87.28C199.659 91.08 201.349 96.02 202.469 102.22C202.609 102.78 202.609 103.21 202.609 103.35C202.703 103.443 202.796 103.443 202.889 103.35C202.889 103.21 203.029 102.79 203.309 102.22C203.869 98.56 204.999 93.06 207.109 85.73C209.219 80.52 211.619 77.98 214.159 77.98C215.569 77.98 216.839 78.83 218.109 80.66C219.379 82.21 219.939 83.48 219.939 84.46C219.939 85.16 219.659 86.15 219.239 87.28C218.819 88.97 218.109 89.82 217.549 89.82C217.269 89.82 216.559 89.12 215.579 87.85C214.589 86.58 213.609 86.02 212.619 86.02C210.369 86.02 208.109 91.37 206.279 102.22C205.289 107.01 204.449 110.39 203.319 112.22C202.619 113.63 202.049 114.33 201.489 114.33C201.069 114.33 200.789 113.63 200.789 112.5C200.789 110.53 199.659 106.86 197.549 101.37C195.439 95.87 193.889 93.2 192.899 93.2C192.339 93.2 191.909 93.34 191.629 93.76C191.489 94.18 191.069 94.46 190.079 94.46C189.229 94.46 187.969 93.76 186.279 92.21C184.729 90.8 184.029 89.67 184.029 88.83C184.029 88.41 184.589 87.14 185.999 84.88C187.269 82.63 188.109 81.64 188.399 81.64H188.379Z" fill="#093C54"/>
<path d="M316.851 198.64C317.081 198.41 317.191 198.19 317.301 198.08C317.411 197.97 317.531 197.97 317.531 198.08V198.87C316.291 205.63 314.261 209.01 311.451 209.01C308.641 209.01 307.061 206.53 307.061 201.57C307.061 195.37 308.751 189.06 312.351 182.31C313.141 180.73 313.701 179.83 313.931 179.83C313.931 180.17 313.701 181.07 313.141 182.65C310.891 189.63 309.761 194.48 309.761 197.3C309.761 201.13 310.771 203.05 312.801 203.05C314.041 203.05 315.391 201.59 316.861 198.66" fill="#093C54"/>
<path d="M202.479 184.05C202.709 183.82 202.819 183.6 202.929 183.49C203.039 183.38 203.159 183.38 203.159 183.49V184.28C201.919 191.04 199.889 194.42 197.079 194.42C194.269 194.42 192.689 191.94 192.689 186.98C192.689 180.78 194.379 174.47 197.979 167.72C198.769 166.14 199.329 165.24 199.559 165.24C199.559 165.58 199.329 166.48 198.769 168.06C196.519 175.04 195.389 179.89 195.389 182.71C195.389 186.54 196.399 188.46 198.429 188.46C199.669 188.46 201.019 187 202.489 184.07" fill="#093C54"/>
<path d="M311.62 91.28C311.85 91.05 311.96 90.83 312.07 90.72C312.18 90.61 312.3 90.61 312.3 90.72V91.51C311.06 98.27 309.03 101.65 306.22 101.65C303.41 101.65 301.83 99.17 301.83 94.21C301.83 88.01 303.52 81.7 307.12 74.95C307.91 73.37 308.47 72.47 308.7 72.47C308.7 72.81 308.47 73.71 307.91 75.29C305.66 82.27 304.53 87.12 304.53 89.94C304.53 93.77 305.54 95.69 307.57 95.69C308.81 95.69 310.16 94.23 311.63 91.3" fill="#093C54"/>
<path d="M121.149 245.71C121.379 245.48 121.489 245.26 121.599 245.15C121.709 245.04 121.829 245.04 121.829 245.15V245.94C120.589 252.7 118.559 256.08 115.749 256.08C112.939 256.08 111.359 253.6 111.359 248.64C111.359 242.44 113.049 236.13 116.649 229.38C117.439 227.8 117.999 226.9 118.229 226.9C118.229 227.24 117.999 228.14 117.439 229.72C115.189 236.7 114.059 241.55 114.059 244.37C114.059 248.2 115.069 250.12 117.099 250.12C118.339 250.12 119.689 248.66 121.159 245.73" fill="#093C54"/>
<path d="M112.03 36.4501C111.8 36.6801 111.69 36.9001 111.58 37.0101C111.47 37.1201 111.35 37.1201 111.35 37.0101V36.2201C112.59 29.4601 114.62 26.0801 117.43 26.0801C120.24 26.0801 121.82 28.5601 121.82 33.5201C121.82 39.7201 120.13 46.0301 116.53 52.7801C115.74 54.3601 115.18 55.2601 114.95 55.2601C114.95 54.9201 115.18 54.0201 115.74 52.4401C117.99 45.4601 119.12 40.6101 119.12 37.7901C119.12 33.9601 118.11 32.0401 116.08 32.0401C114.84 32.0401 113.49 33.5001 112.02 36.4301" fill="#093C54"/>
<path d="M103.921 341.96C104.151 341.73 104.261 341.51 104.371 341.4C104.481 341.29 104.601 341.29 104.601 341.4V342.19C103.361 348.95 101.331 352.33 98.5209 352.33C95.7109 352.33 94.1309 349.85 94.1309 344.89C94.1309 338.69 95.8209 332.38 99.4209 325.63C100.211 324.05 100.771 323.15 101.001 323.15C101.001 323.49 100.771 324.39 100.211 325.97C97.9609 332.95 96.8309 337.8 96.8309 340.62C96.8309 344.45 97.8409 346.37 99.8709 346.37C101.111 346.37 102.461 344.91 103.931 341.98" fill="#093C54"/>
<path d="M39.0009 272.6C39.2309 272.37 39.3409 272.15 39.4509 272.04C39.5609 271.93 39.6809 271.93 39.6809 272.04V272.83C38.4409 279.59 36.4109 282.97 33.6009 282.97C30.7909 282.97 29.2109 280.49 29.2109 275.53C29.2109 269.33 30.9009 263.02 34.5009 256.27C35.2909 254.69 35.8509 253.79 36.0809 253.79C36.0809 254.13 35.8509 255.03 35.2909 256.61C33.0409 263.59 31.9109 268.44 31.9109 271.26C31.9109 275.09 32.9209 277.01 34.9509 277.01C36.1909 277.01 37.5409 275.55 39.0109 272.62" fill="#093C54"/>
<path d="M21.0693 172.02C21.2993 171.79 21.4093 171.57 21.5193 171.46C21.6293 171.35 21.7493 171.35 21.7493 171.46V172.25C20.5093 179.01 18.4793 182.39 15.6693 182.39C12.8593 182.39 11.2793 179.91 11.2793 174.95C11.2793 168.75 12.9693 162.44 16.5693 155.69C17.3593 154.11 17.9193 153.21 18.1493 153.21C18.1493 153.55 17.9193 154.45 17.3593 156.03C15.1093 163.01 13.9793 167.86 13.9793 170.68C13.9793 174.51 14.9893 176.43 17.0193 176.43C18.2593 176.43 19.6093 174.97 21.0793 172.04" fill="#093C54"/>
<path d="M47.7295 132.53C47.9595 132.3 48.0695 132.08 48.1795 131.97C48.2895 131.86 48.4095 131.86 48.4095 131.97V132.76C47.1695 139.52 45.1395 142.9 42.3295 142.9C39.5195 142.9 37.9395 140.42 37.9395 135.46C37.9395 129.26 39.6295 122.95 43.2295 116.2C44.0195 114.62 44.5795 113.72 44.8095 113.72C44.8095 114.06 44.5795 114.96 44.0195 116.54C41.7695 123.52 40.6395 128.37 40.6395 131.19C40.6395 135.02 41.6495 136.94 43.6795 136.94C44.9195 136.94 46.2695 135.48 47.7395 132.55" fill="#093C54"/>
<path d="M245.851 172.46C245.851 174.32 245.391 176.29 244.571 178.27C243.521 180.83 242.131 182.1 240.391 182.1C237.721 182.1 235.741 180.24 234.581 176.52C233.301 181.17 230.981 183.61 227.491 183.61C226.211 183.61 225.171 182.91 224.241 181.64C223.081 180.13 222.611 178.16 222.611 175.72V169.91C222.611 169.45 222.261 169.1 221.561 168.98C220.861 168.75 220.631 168.28 220.631 167.47C220.631 166.19 221.091 164.91 222.261 163.64C223.311 162.59 224.001 162.13 224.581 162.01C225.281 162.13 225.631 163.29 225.631 165.84C225.631 167.23 225.511 168.28 225.281 169.21C225.051 170.14 224.931 170.84 224.931 171.53C224.931 172.92 225.161 174.2 225.741 175.48C226.441 176.87 227.251 177.69 228.301 177.69C229.581 177.69 230.741 177.11 231.901 175.95C233.061 174.79 233.641 173.39 233.641 171.88C233.641 170.95 233.291 169.44 232.831 167.23C232.251 165.14 232.021 163.74 232.021 163.28C232.021 162.82 232.251 162 232.721 161.07C233.181 160.02 233.531 159.56 233.771 159.44C234.231 159.56 234.821 160.95 235.511 163.85C236.211 166.64 236.561 168.85 236.561 170.12C236.561 174.19 238.071 176.16 241.091 176.16C242.371 176.16 243.181 175.46 243.531 174.19C240.861 169.54 239.581 165.94 239.581 163.5C239.581 162.11 239.931 160.83 240.631 159.78C241.091 158.97 241.441 158.62 241.681 158.62C241.801 158.62 242.031 159.08 242.031 160.01C242.261 161.29 242.491 162.45 242.731 163.26C242.731 163.38 243.431 165 244.701 168.14C245.401 170 245.861 171.51 245.861 172.44" fill="#093C54"/>
<path d="M162.349 12.41C164.879 12.41 167.189 13.84 169.169 16.81C171.149 19.78 172.469 23.63 173.349 28.48C173.459 28.92 173.459 29.25 173.459 29.3601C173.533 29.4334 173.606 29.4334 173.679 29.3601C173.679 29.25 173.789 28.92 174.009 28.48C174.449 25.62 175.329 21.33 176.979 15.6C178.629 11.53 180.499 9.55005 182.479 9.55005C183.579 9.55005 184.569 10.21 185.559 11.64C186.549 12.85 186.989 13.84 186.989 14.61C186.989 15.16 186.769 15.93 186.439 16.81C186.109 18.13 185.559 18.79 185.119 18.79C184.899 18.79 184.349 18.24 183.579 17.25C182.809 16.26 182.039 15.82 181.269 15.82C179.509 15.82 177.749 20 176.319 28.48C175.549 32.22 174.889 34.8601 174.009 36.2901C173.459 37.3901 173.019 37.94 172.579 37.94C172.249 37.94 172.029 37.39 172.029 36.51C172.029 34.97 171.149 32.11 169.499 27.81C167.849 23.52 166.639 21.43 165.869 21.43C165.429 21.43 165.099 21.54 164.879 21.87C164.769 22.2 164.439 22.42 163.669 22.42C163.009 22.42 162.019 21.87 160.699 20.66C159.489 19.56 158.939 18.68 158.939 18.02C158.939 17.69 159.379 16.7 160.479 14.94C161.469 13.18 162.129 12.41 162.349 12.41Z" fill="#093C54"/>
<path d="M129.57 84.82C132.1 84.82 134.41 86.25 136.39 89.22C138.37 92.19 139.69 96.04 140.57 100.89C140.68 101.33 140.68 101.66 140.68 101.77C140.753 101.843 140.827 101.843 140.9 101.77C140.9 101.66 141.01 101.33 141.23 100.89C141.67 98.03 142.55 93.74 144.2 88.01C145.85 83.94 147.72 81.96 149.7 81.96C150.8 81.96 151.79 82.62 152.78 84.05C153.77 85.26 154.21 86.25 154.21 87.02C154.21 87.57 153.99 88.34 153.66 89.22C153.33 90.54 152.78 91.2 152.34 91.2C152.12 91.2 151.57 90.65 150.8 89.66C150.03 88.67 149.26 88.23 148.49 88.23C146.73 88.23 144.97 92.41 143.54 100.89C142.77 104.63 142.11 107.27 141.23 108.7C140.68 109.8 140.24 110.35 139.8 110.35C139.47 110.35 139.25 109.8 139.25 108.92C139.25 107.38 138.37 104.52 136.72 100.22C135.07 95.93 133.86 93.84 133.09 93.84C132.65 93.84 132.32 93.95 132.1 94.28C131.99 94.61 131.66 94.83 130.89 94.83C130.23 94.83 129.24 94.28 127.92 93.07C126.71 91.97 126.16 91.09 126.16 90.43C126.16 90.1 126.6 89.11 127.7 87.35C128.69 85.59 129.35 84.82 129.57 84.82Z" fill="#093C54"/>
<path d="M277.65 316.89C280.18 316.89 282.49 318.32 284.47 321.29C286.45 324.26 287.77 328.11 288.65 332.96C288.76 333.4 288.76 333.73 288.76 333.84C288.834 333.913 288.907 333.913 288.98 333.84C288.98 333.73 289.09 333.4 289.31 332.96C289.75 330.1 290.63 325.81 292.28 320.08C293.93 316.01 295.8 314.03 297.78 314.03C298.88 314.03 299.87 314.69 300.86 316.12C301.85 317.33 302.29 318.32 302.29 319.09C302.29 319.64 302.07 320.41 301.74 321.29C301.41 322.61 300.86 323.27 300.42 323.27C300.2 323.27 299.65 322.72 298.88 321.73C298.11 320.74 297.34 320.3 296.57 320.3C294.81 320.3 293.05 324.48 291.62 332.96C290.85 336.7 290.19 339.34 289.31 340.77C288.76 341.87 288.32 342.42 287.88 342.42C287.55 342.42 287.33 341.87 287.33 340.99C287.33 339.45 286.45 336.59 284.8 332.29C283.15 328 281.94 325.91 281.17 325.91C280.73 325.91 280.4 326.02 280.18 326.35C280.07 326.68 279.74 326.9 278.97 326.9C278.31 326.9 277.32 326.35 276 325.14C274.79 324.04 274.24 323.16 274.24 322.5C274.24 322.17 274.68 321.18 275.78 319.42C276.77 317.66 277.43 316.89 277.65 316.89Z" fill="#093C54"/>
<path d="M296.43 244.35C298.96 244.35 301.27 245.78 303.25 248.75C305.23 251.72 306.55 255.57 307.43 260.42C307.54 260.86 307.54 261.19 307.54 261.3C307.613 261.373 307.686 261.373 307.76 261.3C307.76 261.19 307.87 260.86 308.09 260.42C308.53 257.56 309.41 253.27 311.06 247.54C312.71 243.47 314.58 241.49 316.56 241.49C317.66 241.49 318.65 242.15 319.64 243.58C320.63 244.79 321.07 245.78 321.07 246.55C321.07 247.1 320.85 247.87 320.52 248.75C320.19 250.07 319.64 250.73 319.2 250.73C318.98 250.73 318.43 250.18 317.66 249.19C316.89 248.2 316.12 247.76 315.35 247.76C313.59 247.76 311.83 251.94 310.4 260.42C309.63 264.16 308.97 266.8 308.09 268.23C307.54 269.33 307.1 269.88 306.66 269.88C306.33 269.88 306.11 269.33 306.11 268.45C306.11 266.91 305.23 264.05 303.58 259.75C301.93 255.46 300.72 253.37 299.95 253.37C299.51 253.37 299.18 253.48 298.96 253.81C298.85 254.14 298.52 254.36 297.75 254.36C297.09 254.36 296.1 253.81 294.78 252.6C293.57 251.5 293.02 250.62 293.02 249.96C293.02 249.63 293.46 248.64 294.56 246.88C295.55 245.12 296.21 244.35 296.43 244.35Z" fill="#093C54"/>
<path d="M265.93 345.01C266.21 344.73 266.35 344.45 266.49 344.31C266.63 344.17 266.77 344.17 266.77 344.31V345.3C265.22 353.75 262.68 357.98 259.16 357.98C255.64 357.98 253.66 354.88 253.66 348.68C253.66 340.93 255.77 333.04 260.28 324.59C261.27 322.62 261.97 321.49 262.25 321.49C262.25 321.91 261.97 323.04 261.26 325.01C258.44 333.75 257.03 339.8 257.03 343.33C257.03 348.12 258.3 350.52 260.83 350.52C262.38 350.52 264.07 348.69 265.9 345.02" fill="#093C54"/>
<path d="M99.1494 69.6101C138.019 56.5701 178.409 43.0601 220.569 28.8801C222.339 28.4201 223.349 28.1901 223.599 28.4201C223.849 28.6501 223.849 29.3401 223.349 30.7101C221.329 34.8301 219.819 37.3501 218.809 38.0301C183.469 49.9301 141.819 64.5801 94.1094 82.2001C95.1194 78.3101 96.8894 74.1901 99.1594 69.6101" fill="#093C54"/>
<path d="M349.69 238.84C350.25 235.06 351.65 230.44 353.89 224.84C355.57 220.64 356.41 216.44 356.41 212.24C356.41 204.12 352.63 196.42 345.07 189C344.51 188.44 344.51 187.88 344.93 187.18L347.45 182.7C347.73 182.28 348.01 182.28 348.57 182.7C355.99 188.72 359.77 197.54 359.77 208.88C359.77 214.34 358.51 220.08 356.13 226.24C353.75 232.4 352.49 236.6 352.49 238.98C352.49 243.74 353.75 246.12 356.27 246.12C357.81 246.12 359.49 244.3 361.31 240.66C361.59 240.38 361.73 240.1 361.87 239.96C362.01 239.82 362.15 239.82 362.15 239.96C362.29 240.1 362.29 240.38 362.15 240.8C360.61 249.2 358.09 253.4 354.59 253.4C351.09 253.4 349.27 249.9 349.27 243.04C349.27 241.78 349.41 240.38 349.69 238.84Z" fill="#093C54"/>
<path d="M155.96 359.02C156.4 356.02 157.51 352.36 159.29 347.92C160.62 344.59 161.29 341.26 161.29 337.93C161.29 331.49 158.29 325.39 152.3 319.51C151.86 319.07 151.86 318.62 152.19 318.07L154.19 314.52C154.41 314.19 154.63 314.19 155.08 314.52C160.96 319.29 163.96 326.28 163.96 335.27C163.96 339.6 162.96 344.15 161.07 349.03C159.18 353.91 158.18 357.24 158.18 359.13C158.18 362.9 159.18 364.79 161.18 364.79C162.4 364.79 163.73 363.35 165.17 360.46C165.39 360.24 165.5 360.02 165.61 359.91C165.72 359.8 165.83 359.8 165.83 359.91C165.94 360.02 165.94 360.24 165.83 360.58C164.61 367.24 162.61 370.57 159.84 370.57C157.07 370.57 155.62 367.8 155.62 362.36C155.62 361.36 155.73 360.25 155.95 359.03" fill="#093C54"/>
<path d="M245.591 80.2001C246.151 76.4201 247.551 71.8001 249.791 66.2001C251.471 62.0001 252.311 57.8001 252.311 53.6001C252.311 45.4801 248.531 37.7801 240.971 30.3601C240.411 29.8001 240.411 29.2401 240.831 28.5401L243.351 24.0601C243.631 23.6401 243.911 23.6401 244.471 24.0601C251.891 30.0801 255.671 38.9001 255.671 50.2401C255.671 55.7001 254.411 61.4401 252.031 67.6001C249.651 73.7601 248.391 77.9601 248.391 80.3401C248.391 85.1001 249.651 87.4801 252.171 87.4801C253.711 87.4801 255.391 85.6601 257.211 82.0201C257.491 81.7401 257.631 81.4601 257.771 81.3201C257.911 81.1801 258.051 81.1801 258.051 81.3201C258.191 81.4601 258.191 81.7401 258.051 82.1601C256.511 90.5601 253.991 94.7601 250.491 94.7601C246.991 94.7601 245.171 91.2601 245.171 84.4001C245.171 83.1401 245.311 81.7401 245.591 80.2001Z" fill="#093C54"/>
<path d="M275.02 33.3101C275.16 33.3901 275.31 33.4601 275.45 33.5401C275.3 33.4001 275.16 33.3201 275.02 33.3101Z" fill="#093C54"/>
<path d="M376.09 161.64C375.7 159.12 362.8 78.4901 275.46 33.5501C275.32 33.4701 275.17 33.4001 275.03 33.3201H274.98C274.65 33.3301 274.32 33.7901 274.01 34.6801C272.7 37.9701 271.69 40.6901 270.98 42.8901C270.09 45.6401 269.68 47.5201 269.72 48.5701L271.95 51.2501C272.72 57.8601 273.62 65.3701 274.65 73.7701C275.87 83.8201 277.66 99.2801 279.55 115.95C279.99 119.87 280.45 123.85 280.9 127.85C282.06 138.19 283.22 148.62 284.27 158.18C284.56 160.81 284.84 163.38 285.11 165.84C287.08 183.8 288.5 197.34 288.57 199.06C288.91 206.65 288.35 211.08 286.89 212.35C281.85 216.63 276.16 218.91 270.59 219.16C266.79 219.32 263.6 218.28 261.05 216.07C258.46 213.81 257.07 210.8 256.91 207.01C256.89 206.52 256.93 205.78 257.04 204.78C257.13 203.79 257.17 203.07 257.16 202.63C257.1 201.42 256.7 200.84 255.94 200.86C255 200.92 254.22 201.61 253.58 202.95C247.32 216.21 239.4 223.04 229.82 223.47C226.19 223.63 223.21 222.17 220.85 219.08C219.05 216.75 218.1 214.65 218.02 212.77C217.98 212.01 218.38 210.31 219.2 207.69C219.82 205.69 219.59 204.71 218.53 204.74C218.19 204.78 215.9 207.1 211.65 211.74C210.32 213.2 209.16 214.47 208.17 215.53C205.74 218.14 204.33 219.59 203.93 219.92C200.43 222.8 196.79 224.92 193.05 226.29C190.02 227.41 186.93 228.02 183.75 228.16C179.26 228.37 175.37 226.59 172.1 222.82C170.93 221.45 168.78 217.95 165.66 212.31C163.57 208.51 161.65 206.65 159.88 206.72C155.2 206.93 150.27 210.5 145.08 217.43C139.22 225.35 136.04 234.37 135.49 244.51C135.37 247.1 136.11 250.36 137.69 254.3C137.7 254.31 137.71 254.31 137.73 254.32C126.64 261.2 112.57 272.06 104.7 272.4C100.37 272.61 97.1503 272.14 95.0603 271.02C90.9903 268.8 88.0703 263.87 86.3303 256.24C85.7403 253.69 84.4103 238.17 82.3203 209.66C80.0903 179.53 78.1703 159.42 76.5403 149.32C73.9403 133.06 64.9403 103.77 60.9003 97.1301C60.2803 96.0501 59.7903 95.5401 59.4303 95.5401C59.0903 95.5601 58.6503 96.2401 58.1203 97.5801C56.0303 103.01 55.0303 107.07 55.1503 109.75C59.0003 119.71 67.4603 148.07 69.1803 159.21C70.2603 166.16 71.9903 185.05 74.3403 215.88C76.5503 244.27 78.3403 261.34 79.7103 267.1C81.9003 276.41 85.5303 282.69 90.6503 285.92C94.2103 288.18 99.1403 289.16 105.44 288.88C113.74 288.51 129.13 276.87 142.53 268.46C144.59 272.61 147.6 276.36 151.54 279.69C156.77 284.12 162.2 286.22 167.82 285.96C171.83 285.78 175 283.91 177.31 280.34C179.62 276.78 180.63 272.34 180.4 267.01C180.11 260.59 178.43 255.48 175.38 251.69C172.3 247.9 168.29 246.11 163.32 246.33C156.85 246.62 150.99 248 145.77 250.5L145.7 250.52C145.7 250.52 145.71 250.48 145.71 250.47C142.78 247.7 141.24 244.94 141.12 242.19C140.97 238.95 143.14 234.96 147.6 230.2C151.74 225.73 154.91 223.44 157.14 223.34C158.26 223.29 159.87 225.18 161.96 228.97C164.76 234.02 167.09 237.56 168.92 239.55C172.49 243.31 176.57 245.07 181.19 244.86C188.08 244.56 194.88 241.34 201.57 235.21C202.01 234.8 202.45 234.4 202.87 233.98C206.33 230.67 209.01 227.38 210.91 224.15C211.4 223.31 211.73 222.83 211.89 222.71C212.07 222.71 212.24 223.17 212.39 224.08C214.64 235.09 220.44 240.38 229.79 239.96C233.36 239.81 236.58 238.74 239.43 236.78C243.92 233.69 247.53 228.38 250.27 220.83C250.8 219.43 251.31 219.4 251.84 220.76C256.09 230.99 262.57 235.95 271.3 235.62H271.36C271.36 235.62 271.44 235.63 271.49 235.63C278.41 235.24 284.61 231.13 289.36 223.27C295.02 213.9 297.49 201.26 296.78 185.35C296.7 183.42 295.45 171.38 293.71 155.36C293.42 152.65 293.11 149.8 292.8 146.89C292.09 140.37 291.33 133.43 290.55 126.41C290.06 122 289.57 117.54 289.08 113.14C286.92 93.8501 284.82 75.5001 283.56 65.1301C282.41 55.4301 284.89 54.7701 285.67 54.8001C285.66 54.7801 285.65 54.7401 285.63 54.7201L285.9 54.8401C306.58 66.4701 356.66 100.08 376.13 161.63L376.09 161.64ZM166.15 263.37C169.41 264.49 171.1 265.9 171.17 267.58C171.23 268.75 170.11 269.38 167.82 269.48C161.98 269.75 157.55 267.85 154.49 263.79C159.84 262.69 163.71 262.54 166.14 263.37H166.15Z" fill="#093C54"/>
<path d="M48.3598 242.28C56.6398 242.28 66.6798 238.74 78.4898 231.66C88.1098 225.93 97.5398 218.9 106.8 210.59C115.08 203.03 119.77 197.72 120.86 194.65C120.02 189.77 113.74 187.33 102.02 187.32C87.6398 187.32 80.4398 182.46 80.4398 172.72C80.4398 165.19 82.8698 158.55 87.7398 152.82C92.2498 147.48 96.9398 144.8 101.81 144.79C107.41 144.79 112.65 148.39 117.51 155.58C121.78 161.81 124.63 168.64 126.09 176.06C126.71 179.36 127.01 182.71 127.01 186.12C127.01 197.95 123.97 207.34 117.88 214.28C109.72 223.43 100.59 232.01 90.4798 240.06C73.3198 253.71 58.8198 260.54 47.0098 260.54C37.0298 260.54 29.2898 256.82 23.8098 249.38C18.9398 242.79 16.5098 234.62 16.5098 224.86C16.5098 212.06 19.1998 199 24.5498 185.69C25.7698 182.89 26.6198 181.49 27.0998 181.48C27.3398 181.61 27.4598 181.92 27.4598 182.4C27.4598 183.26 27.2298 184.66 26.7398 186.61C23.0198 199.81 21.1398 209.75 21.1398 216.46C21.1398 222.81 22.7198 228.18 25.8798 232.57C30.5098 239.05 37.9998 242.27 48.3498 242.27L48.3598 242.28ZM110.63 171.12C109.41 168.83 107.64 166.65 105.31 164.58C102.5 162.28 99.9898 161.13 97.7898 161.12C92.4198 161.12 89.7198 162.58 89.7198 165.48C89.7198 168.87 93.2698 170.56 100.35 170.55C105.74 170.55 109.17 170.75 110.63 171.12Z" fill="#093C54"/>
<path d="M165.72 108.77C165.12 108.77 164.45 109.57 163.72 111.15C160.13 118.9 156.32 124.42 152.29 127.71C148.27 131 143.12 132.64 136.85 132.63V132.66C131.33 132.66 126.85 131.8 123.41 130.11C119.94 128.41 116.56 125.23 113.27 120.59C110.96 116.83 108.65 113.05 106.33 109.26C103.53 105.12 100.49 103.05 97.1998 103.04C92.8198 103.04 87.9698 105.67 82.6798 110.91C77.3798 116.15 72.9098 122.43 69.2498 129.74C65.1098 138.65 61.0298 147.54 57.0098 156.43C52.9998 163.86 48.6098 167.58 43.8498 167.58C32.0398 167.58 26.1298 154.86 26.1298 129.42C26.1298 124.08 26.6098 117.56 27.5498 109.89C27.9098 106.73 27.7298 105.15 26.9998 105.14C26.3898 105.14 25.7198 106.43 24.9898 108.98C22.5598 116.18 21.3398 125.8 21.3398 137.84C21.3398 147.84 23.4198 157.46 27.5498 166.7C32.1798 177.17 37.8398 182.4 44.5498 182.4C49.0598 182.4 53.3298 179.42 57.3398 173.45C59.8998 169.56 62.9198 163.25 66.3898 154.54C69.8598 145.84 72.2698 140.45 73.6098 138.37C81.1698 126.8 88.3598 121.02 95.1798 121.01C97.3698 121.01 99.5698 122.72 101.76 126.13C104.2 130.28 106.64 134.36 109.07 138.36C112.97 144.33 117.85 148.17 123.7 149.86C126.38 150.6 130.82 150.95 137.04 150.95V150.91C145.56 150.85 153.93 144.81 159.87 136.21C165.35 128.29 166.94 121.35 166.94 111.89C166.94 109.83 166.55 108.79 165.75 108.78L165.72 108.77Z" fill="#093C54"/>
<path d="M285.861 54.8401L285.791 55.1601C285.731 55.0401 285.681 54.9301 285.631 54.8101C285.771 54.8101 285.861 54.8501 285.861 54.8501V54.8401Z" fill="#093C54"/>
</g>
<defs>
<clipPath id="clip0_2115_561">
<rect width="388.83" height="388.83" fill="#093C54"/>
</clipPath>
</defs>
</svg>
