<svg width="21" height="17" viewBox="0 0 21 17" fill="none" xmlns="http://www.w3.org/2000/svg">
<path fill-rule="evenodd" clip-rule="evenodd" d="M11.8056 4.72222C9.6323 4.72222 7.87046 6.48407 7.87046 8.65741C7.87046 10.8308 9.6323 12.5926 11.8056 12.5926C13.979 12.5926 15.7408 10.8308 15.7408 8.65741C15.7408 6.48407 13.979 4.72222 11.8056 4.72222ZM6.29639 8.65741C6.29639 5.61473 8.76297 3.14815 11.8056 3.14815C14.8483 3.14815 17.3149 5.61473 17.3149 8.65741C17.3149 11.7001 14.8483 14.1667 11.8056 14.1667C8.76297 14.1667 6.29639 11.7001 6.29639 8.65741Z" fill="white"/>
<path fill-rule="evenodd" clip-rule="evenodd" d="M14.5879 11.44C14.8953 11.1326 15.3936 11.1326 15.701 11.44L19.9174 15.6564C20.2248 15.9638 20.2248 16.4621 19.9174 16.7695C19.6101 17.0768 19.1117 17.0768 18.8044 16.7695L14.5879 12.553C14.2806 12.2457 14.2806 11.7474 14.5879 11.44Z" fill="white"/>
<path fill-rule="evenodd" clip-rule="evenodd" d="M0 0.787038C0 0.352369 0.352369 0 0.787038 0H13.3796C13.8143 0 14.1667 0.352369 14.1667 0.787038C14.1667 1.22171 13.8143 1.57408 13.3796 1.57408H0.787038C0.352369 1.57408 0 1.22171 0 0.787038Z" fill="white"/>
<path fill-rule="evenodd" clip-rule="evenodd" d="M0 5.50927C0 5.0746 0.352369 4.72223 0.787037 4.72223H4.59248C5.02715 4.72223 5.37952 5.0746 5.37952 5.50927C5.37952 5.94394 5.02715 6.2963 4.59248 6.2963H0.787037C0.352369 6.2963 0 5.94394 0 5.50927Z" fill="white"/>
<path fill-rule="evenodd" clip-rule="evenodd" d="M0 10.2315C0 9.79681 0.352369 9.44444 0.787038 9.44444H4.09334C4.52801 9.44444 4.88038 9.79681 4.88038 10.2315C4.88038 10.6661 4.52801 11.0185 4.09334 11.0185H0.787038C0.352369 11.0185 0 10.6661 0 10.2315Z" fill="white"/>
<path fill-rule="evenodd" clip-rule="evenodd" d="M0 14.9537C0 14.519 0.352369 14.1667 0.787037 14.1667H7.08849C7.52316 14.1667 7.87553 14.519 7.87553 14.9537C7.87553 15.3884 7.52316 15.7407 7.08849 15.7407H0.787037C0.352369 15.7407 0 15.3884 0 14.9537Z" fill="white"/>
</svg>
