<svg width="17" height="17" viewBox="0 0 17 17" fill="none" xmlns="http://www.w3.org/2000/svg">
<path d="M11.1562 0.265625H5.84375C5.28036 0.266258 4.74022 0.490344 4.34185 0.888722C3.94347 1.2871 3.71938 1.82723 3.71875 2.39062V14.6094C3.71938 15.1728 3.94347 15.7129 4.34185 16.1113C4.74022 16.5097 5.28036 16.7337 5.84375 16.7344H11.1562C11.7196 16.7337 12.2598 16.5097 12.6582 16.1113C13.0565 15.7129 13.2806 15.1728 13.2812 14.6094V2.39062C13.2806 1.82723 13.0565 1.2871 12.6582 0.888722C12.2598 0.490344 11.7196 0.266258 11.1562 0.265625ZM4.25 2.92188H12.75V13.0156H4.25V2.92188ZM5.84375 0.796875H11.1562C11.5788 0.797297 11.9839 0.965345 12.2827 1.26414C12.5815 1.56293 12.7496 1.96807 12.75 2.39062H4.25C4.25042 1.96807 4.41847 1.56293 4.71726 1.26414C5.01606 0.965345 5.42119 0.797297 5.84375 0.796875ZM11.1562 16.2031H5.84375C5.42119 16.2027 5.01606 16.0347 4.71726 15.7359C4.41847 15.4371 4.25042 15.0319 4.25 14.6094V13.5469H12.75V14.6094C12.7496 15.0319 12.5815 15.4371 12.2827 15.7359C11.9839 16.0347 11.5788 16.2027 11.1562 16.2031Z" fill="#155D74"/>
<path d="M8.5 14.0781C8.34239 14.0781 8.18833 14.1249 8.05728 14.2124C7.92624 14.3 7.8241 14.4244 7.76378 14.57C7.70347 14.7157 7.68769 14.8759 7.71844 15.0305C7.74918 15.185 7.82508 15.327 7.93652 15.4385C8.04797 15.5499 8.18996 15.6258 8.34454 15.6566C8.49912 15.6873 8.65934 15.6715 8.80495 15.6112C8.95056 15.5509 9.07502 15.4488 9.16258 15.3177C9.25014 15.1867 9.29688 15.0326 9.29688 14.875C9.29688 14.6637 9.21292 14.461 9.06348 14.3115C8.91403 14.1621 8.71134 14.0781 8.5 14.0781ZM8.5 15.1406C8.44746 15.1406 8.39611 15.125 8.35243 15.0959C8.30875 15.0667 8.2747 15.0252 8.25459 14.9766C8.23449 14.9281 8.22923 14.8747 8.23948 14.8232C8.24973 14.7717 8.27503 14.7243 8.31217 14.6872C8.34932 14.65 8.39665 14.6247 8.44818 14.6145C8.49971 14.6042 8.55311 14.6095 8.60165 14.6296C8.65019 14.6497 8.69167 14.6837 8.72086 14.7274C8.75005 14.7711 8.76563 14.8225 8.76563 14.875C8.76563 14.9454 8.73764 15.013 8.68783 15.0628C8.63801 15.1126 8.57045 15.1406 8.5 15.1406Z" fill="#155D74"/>
<path d="M9.29688 1.32812H7.70312C7.63268 1.32812 7.56511 1.35611 7.5153 1.40592C7.46549 1.45574 7.4375 1.5233 7.4375 1.59375C7.4375 1.6642 7.46549 1.73176 7.5153 1.78158C7.56511 1.83139 7.63268 1.85938 7.70312 1.85938H9.29688C9.36732 1.85938 9.43489 1.83139 9.4847 1.78158C9.53451 1.73176 9.5625 1.6642 9.5625 1.59375C9.5625 1.5233 9.53451 1.45574 9.4847 1.40592C9.43489 1.35611 9.36732 1.32812 9.29688 1.32812Z" fill="#155D74"/>
</svg>
