<svg width="24" height="18" viewBox="0 0 24 18" fill="none" xmlns="http://www.w3.org/2000/svg">
<path d="M23.5348 1.8235C23.5332 1.8235 23.5317 1.8235 23.5301 1.8235H21.9531V1.28386C21.9616 1.07027 21.8234 0.878318 21.6181 0.818655C20.5233 0.531739 19.3959 0.387874 18.264 0.390665C16.4032 0.390665 13.8678 0.809351 11.993 2.7167C10.1322 0.790743 7.57821 0.390665 5.72204 0.390665C4.59019 0.387874 3.46276 0.531739 2.3679 0.818655C2.16263 0.878318 2.02446 1.07027 2.03295 1.28386V1.81885H0.465206C0.208296 1.81885 0 2.02714 0 2.28405V17.1427C0 17.3997 0.208296 17.608 0.465206 17.608C0.545106 17.6077 0.623609 17.5869 0.693158 17.5475C0.739678 17.5242 5.39174 14.9795 11.886 16.6171H11.9558H11.9977C12.0348 16.6215 12.0722 16.6215 12.1093 16.6171C18.6222 14.9656 23.2743 17.5056 23.3022 17.5475C23.4461 17.6306 23.6235 17.6306 23.7674 17.5475C23.9104 17.4649 23.999 17.3126 24 17.1474V2.28871C24 2.0318 23.7918 1.8235 23.5348 1.8235ZM0.930413 16.4031V2.75391H2.04226V14.4213C2.03935 14.6782 2.24526 14.8888 2.50217 14.8917C2.52729 14.892 2.55241 14.8903 2.57724 14.8865C3.53964 14.7396 4.51128 14.6618 5.48478 14.6539C6.8333 14.6305 8.17618 14.8333 9.45765 15.254C6.56377 14.9041 3.62844 15.2996 0.930413 16.4031ZM5.48478 13.7281C4.63863 13.7301 3.79347 13.7844 2.95406 13.891V1.65137C3.85982 1.44959 4.78476 1.34661 5.71274 1.34434C7.45261 1.34434 9.85307 1.74442 11.5185 3.62385L11.5325 15.2121C10.5648 14.5795 8.6761 13.7281 5.48478 13.7281ZM12.4629 3.62385C14.1283 1.76302 16.5288 1.34434 18.2687 1.34434C19.1966 1.34707 20.1215 1.45 21.0273 1.65137V13.891C20.1926 13.7834 19.3521 13.7275 18.5106 13.7235C15.3379 13.7235 13.4445 14.5748 12.4629 15.2075V3.62385ZM23.0649 16.4031C20.3612 15.2966 17.4191 14.901 14.5191 15.254C15.8066 14.8318 17.1559 14.6289 18.5106 14.6539C19.4902 14.6594 20.4681 14.7355 21.4367 14.8818C21.6907 14.9204 21.9279 14.7457 21.9665 14.4917C21.9702 14.4669 21.972 14.4418 21.9717 14.4166V2.75391H23.0835L23.0649 16.4031Z" fill="#155D74"/>
</svg>
