<svg width="17" height="17" viewBox="0 0 17 17" fill="none" xmlns="http://www.w3.org/2000/svg">
<g clip-path="url(#clip0_2134_412)">
<path d="M9.16349 6.44307L9.16349 2.53765L10.9503 4.32447L11.8887 3.38612L8.50262 -1.48009e-07L5.0807 3.38346L6.01378 4.3271L7.83643 2.52493L7.83643 6.44307L9.16349 6.44307Z" fill="white"/>
<path d="M11.8887 13.6141L10.9503 12.6757L9.16349 14.4625L9.16349 10.5571L7.83643 10.5571L7.83643 14.4752L6.01378 12.6731L5.0807 13.6167L8.50262 17.0002L11.8887 13.6141Z" fill="white"/>
<path d="M12.1835 16.9933L15.0035 16.9933C16.1012 16.9933 16.9941 16.1003 16.9941 15.0027L16.9941 1.99743C16.9941 0.899801 16.1011 0.0068359 15.0035 0.00683585L12.1835 0.00683573L12.1835 1.3339L15.0035 1.3339C15.3694 1.3339 15.6671 1.63156 15.6671 1.99743L15.6671 7.8365L1.33478 7.8365L1.33478 1.99743C1.33478 1.63156 1.63245 1.3339 1.99831 1.3339L4.85149 1.3339L4.85149 0.00683541L1.99831 0.00683528C0.900686 0.00683523 0.00772091 0.899833 0.00772086 1.99743L0.00772029 15.0027C0.00772024 16.1003 0.900718 16.9933 1.99831 16.9933L4.85149 16.9933L4.85149 15.6662L1.99831 15.6662C1.63245 15.6662 1.33478 15.3685 1.33478 15.0027L1.33478 9.16359L15.6671 9.16359L15.6671 15.0027C15.6671 15.3685 15.3694 15.6662 15.0035 15.6662L12.1835 15.6662L12.1835 16.9933L12.1835 16.9933Z" fill="white"/>
</g>
<defs>
<clipPath id="clip0_2134_412">
<rect width="17" height="17" fill="white" transform="translate(17) rotate(90)"/>
</clipPath>
</defs>
</svg>
