<svg width="25" height="22" viewBox="0 0 25 22" fill="none" xmlns="http://www.w3.org/2000/svg">
<path d="M10.9888 21.2225C10.9159 21.2224 10.8438 21.2074 10.777 21.1781C10.7103 21.1489 10.6503 21.1062 10.6008 21.0527L0.140368 9.7375C0.0706361 9.66206 0.0244081 9.56793 0.00734206 9.46663C-0.00972404 9.36533 0.00311193 9.26125 0.0442792 9.16713C0.0854464 9.07301 0.153159 8.99294 0.23913 8.9367C0.325101 8.88047 0.4256 8.85052 0.528328 8.85052H5.56341C5.63901 8.85053 5.71373 8.86675 5.78252 8.8981C5.85132 8.92944 5.91259 8.97518 5.9622 9.03221L9.45813 13.0542C9.83594 12.2465 10.5673 10.9018 11.8508 9.2632C13.7481 6.84076 17.2773 3.27811 23.3154 0.0620004C23.4321 -0.000147173 23.5679 -0.0162769 23.6959 0.0167963C23.8239 0.0498695 23.9349 0.129741 24.0069 0.240641C24.0789 0.35154 24.1067 0.485404 24.0848 0.615802C24.0629 0.746199 23.9929 0.86365 23.8887 0.944963C23.8656 0.962979 21.5376 2.79632 18.8582 6.1544C16.3924 9.24466 13.1145 14.2977 11.5015 20.8211C11.4731 20.9357 11.4072 21.0375 11.3143 21.1103C11.2213 21.1831 11.1067 21.2227 10.9886 21.2227L10.9888 21.2225Z" fill="#155D74"/>
</svg>
