<svg width="18" height="14" viewBox="0 0 18 14" fill="none" xmlns="http://www.w3.org/2000/svg">
<path d="M14.8515 4.63652C14.0277 1.35463 10.6994 -0.638015 7.4175 0.185818C4.85277 0.829645 2.9905 3.04629 2.79862 5.6836C0.977562 5.98391 -0.255263 7.7036 0.0450498 9.52466C0.312014 11.1436 1.71482 12.3292 3.35559 12.3227H6.14046V11.2088H3.35559C2.12517 11.2088 1.1277 10.2113 1.1277 8.98088C1.1277 7.75046 2.12517 6.75299 3.35559 6.75299C3.66322 6.75299 3.91257 6.50364 3.91257 6.19601C3.90978 3.42754 6.15184 1.18099 8.92031 1.17824C11.3168 1.17584 13.3798 2.87008 13.8434 5.22131C13.8892 5.45607 14.0797 5.63542 14.3168 5.66689C15.8395 5.88372 16.8981 7.29388 16.6813 8.81654C16.4866 10.1838 15.3192 11.2019 13.9381 11.2088H11.7102V12.3227H13.9381C16.0913 12.3162 17.8316 10.5654 17.8251 8.4121C17.8196 6.61969 16.5928 5.06188 14.8515 4.63652Z" fill="#474747"/>
<path d="M8.53063 6.9149L6.30273 9.1428L7.08807 9.92813L8.36911 8.65266V13.994H9.48305V8.65266L10.7585 9.92813L11.5439 9.1428L9.31596 6.9149C9.09871 6.69894 8.74788 6.69894 8.53063 6.9149Z" fill="#474747"/>
</svg>
