<svg width="19" height="19" viewBox="0 0 19 19" fill="none" xmlns="http://www.w3.org/2000/svg">
<rect width="19" height="19" fill="#155D74"/>
<g clip-path="url(#clip0_2134_2797)">
<path fill-rule="evenodd" clip-rule="evenodd" d="M6.29167 5.14583C5.65884 5.14583 5.14583 5.65884 5.14583 6.29167V12.7083C5.14583 13.3412 5.65884 13.8542 6.29167 13.8542H9.95833V14.3125H6.29167C5.40571 14.3125 4.6875 13.5943 4.6875 12.7083V6.29167C4.6875 5.40571 5.40571 4.6875 6.29167 4.6875H9.5C9.56078 4.6875 9.61907 4.71165 9.66207 4.75462L12.4121 7.50462C12.455 7.5476 12.4792 7.60589 12.4792 7.66667V8.58333H12.0208V7.76159L9.40508 5.14583H6.29167Z" fill="white"/>
<path fill-rule="evenodd" clip-rule="evenodd" d="M9.41297 4.70495C9.49859 4.66948 9.59718 4.68909 9.66272 4.75463L12.4127 7.50463C12.4783 7.57017 12.4978 7.66874 12.4624 7.75437C12.4269 7.84001 12.3433 7.89584 12.2507 7.89584H10.8757C9.98969 7.89584 9.27148 7.17763 9.27148 6.29167V4.91667C9.27148 4.82398 9.32731 4.74042 9.41297 4.70495ZM9.72982 5.46993V6.29167C9.72982 6.9245 10.2428 7.43751 10.8757 7.43751H11.6974L9.72982 5.46993Z" fill="white"/>
<path fill-rule="evenodd" clip-rule="evenodd" d="M11.1048 9.72921C10.3454 9.72921 9.72982 10.3448 9.72982 11.1042C9.72982 11.8636 10.3454 12.4792 11.1048 12.4792C11.8642 12.4792 12.4798 11.8636 12.4798 11.1042C12.4798 10.3448 11.8642 9.72921 11.1048 9.72921ZM9.27148 11.1042C9.27148 10.0917 10.0923 9.27087 11.1048 9.27087C12.1173 9.27087 12.9382 10.0917 12.9382 11.1042C12.9382 12.1167 12.1173 12.9375 11.1048 12.9375C10.0923 12.9375 9.27148 12.1167 9.27148 11.1042Z" fill="white"/>
<path fill-rule="evenodd" clip-rule="evenodd" d="M12.412 12.0879L14.2453 13.9212L13.9212 14.2454L12.0879 12.412L12.412 12.0879Z" fill="white"/>
<path fill-rule="evenodd" clip-rule="evenodd" d="M8.58268 7.43746H6.29102V6.97913H8.58268V7.43746Z" fill="white"/>
<path fill-rule="evenodd" clip-rule="evenodd" d="M8.58268 9.72921H6.29102V9.27087H8.58268V9.72921Z" fill="white"/>
<path fill-rule="evenodd" clip-rule="evenodd" d="M8.58268 12.0208H6.29102V11.5625H8.58268V12.0208Z" fill="white"/>
</g>
<defs>
<clipPath id="clip0_2134_2797">
<rect width="11" height="11" fill="white" transform="translate(4 4)"/>
</clipPath>
</defs>
</svg>
