<svg width="22" height="19" viewBox="0 0 22 19" fill="none" xmlns="http://www.w3.org/2000/svg">
<path d="M20.9194 15.3371L12.2266 0.920755C11.8842 0.352822 11.2594 0 10.5962 0C9.93299 0 9.30827 0.352822 8.96576 0.920796L0.272995 15.3371C-0.0809436 15.9241 -0.0914156 16.6596 0.245636 17.2564C0.58277 17.8533 1.21796 18.2241 1.90341 18.2241H19.289C19.9745 18.2241 20.6097 17.8533 20.9468 17.2564C21.2839 16.6595 21.2734 15.924 20.9194 15.3371ZM19.7454 16.5779C19.6526 16.7422 19.4777 16.8443 19.289 16.8443H1.90341C1.7147 16.8443 1.53982 16.7423 1.44707 16.578C1.35427 16.4136 1.35716 16.2112 1.45456 16.0496L10.1474 1.63327C10.2417 1.47693 10.4137 1.37979 10.5963 1.37979C10.7788 1.37979 10.9508 1.47693 11.0451 1.63327L19.7378 16.0496C19.8353 16.2112 19.8382 16.4136 19.7454 16.5779Z" fill="white"/>
</svg>
